<svg width="20" height="21" viewBox="0 0 20 21" fill="none" xmlns="http://www.w3.org/2000/svg">
<path d="M17.8909 10.7107C17.747 10.5386 14.3171 6.50009 9.99985 6.50009C5.68256 6.50009 2.25291 10.539 2.10909 10.7107L2 10.841L2.10909 10.9714C2.25298 11.1434 5.68286 15.182 9.99985 15.182C14.3171 15.182 17.7471 11.143 17.8909 10.9714L18 10.841L17.8909 10.7107ZM9.99985 14.7762C6.29865 14.7762 3.1653 11.5368 2.53529 10.8412C3.16533 10.1454 6.29865 6.90618 9.99985 6.90618C13.701 6.90618 16.8347 10.1456 17.4647 10.8415C16.8352 11.5374 13.7044 14.7765 9.99985 14.7765V14.7762Z" fill="black" stroke="black" stroke-width="0.5"/>
<path d="M10.0007 8.29892C8.59925 8.29892 7.45898 9.43903 7.45898 10.8405C7.45898 12.2419 8.59922 13.3821 10.0007 13.3821C11.4021 13.3821 12.5422 12.2419 12.5422 10.8405C12.5422 9.43903 11.4021 8.29892 10.0007 8.29892ZM10.0007 12.9762C8.82299 12.9762 7.86492 12.0181 7.86492 10.8406C7.86492 9.66301 8.82299 8.70495 10.0007 8.70495C11.1782 8.70495 12.1363 9.66301 12.1363 10.8406C12.1363 12.0181 11.1782 12.9762 10.0007 12.9762Z" fill="black" stroke="black" stroke-width="0.5"/>
</svg>
