<svg viewBox="0 0 20 20" fill="none" xmlns="http://www.w3.org/2000/svg">
<mask id="path-1-inside-1_1045_5517" fill="white">
<path d="M17 8.13484C17 5.84997 15.1066 4 12.7681 4C11.4499 4 10.2755 4.58878 9.49829 5.50875C8.72449 4.58878 7.54668 4 6.23191 4C3.8934 4 2 5.84997 2 8.13484C2 9.40942 2.58891 10.5468 3.51678 11.3062L9.49829 17L15.4798 11.3029C16.4077 10.5468 17 9.40607 17 8.13484ZM9.49829 10.7576C9.49829 10.7576 9.50171 10.7576 9.49829 10.7576V10.7576Z"/>
</mask>
<path d="M9.49829 5.50875L8.733 6.15244L9.4966 7.06028L10.2622 6.1541L9.49829 5.50875ZM3.51678 11.3062L4.20625 10.5819L4.17912 10.5561L4.15013 10.5324L3.51678 11.3062ZM9.49829 17L8.80882 17.7243L9.49849 18.3808L10.188 17.7241L9.49829 17ZM15.4798 11.3029L14.8481 10.5276L14.8181 10.5521L14.7901 10.5788L15.4798 11.3029ZM18 8.13484C18 5.27594 15.6369 3 12.7681 3V5C14.5763 5 16 6.42401 16 8.13484H18ZM12.7681 3C11.1463 3 9.69559 3.72567 8.7344 4.8634L10.2622 6.1541C10.8554 5.45189 11.7535 5 12.7681 5V3ZM10.2636 4.86506C9.30475 3.72511 7.84951 3 6.23191 3V5C7.24385 5 8.14423 5.45245 8.733 6.15244L10.2636 4.86506ZM6.23191 3C3.36312 3 1 5.27594 1 8.13484H3C3 6.42401 4.42369 5 6.23191 5V3ZM1 8.13484C1 9.72693 1.73748 11.1422 2.88343 12.0801L4.15013 10.5324C3.44033 9.95145 3 9.09191 3 8.13484H1ZM2.82731 12.0305L8.80882 17.7243L10.1878 16.2757L4.20625 10.5819L2.82731 12.0305ZM10.188 17.7241L16.1695 12.027L14.7901 10.5788L8.8086 16.2759L10.188 17.7241ZM16.1115 12.0781C17.2582 11.1438 18 9.72464 18 8.13484H16C16 9.08751 15.5572 9.94989 14.8481 10.5276L16.1115 12.0781ZM9.49829 10.7576C9.49829 11.7576 9.49829 11.7576 9.49829 11.7576C9.49829 11.7576 9.49829 11.7576 9.49829 11.7576C9.49829 11.7576 9.49829 11.7576 9.49829 11.7576C9.49829 11.7576 9.49829 11.7576 9.49829 11.7576C9.49829 11.7576 9.49829 11.7576 9.49829 11.7576C9.49829 11.7576 9.49829 11.7576 9.49829 11.7576H9.49829C9.49829 11.7576 9.49829 11.7576 9.49829 11.7576H9.49829C9.49829 11.7576 9.49829 11.7576 9.49829 11.7576C9.49829 11.7576 9.49829 11.7576 9.49829 11.7576C9.49829 11.7576 9.4983 11.7576 9.4983 11.7576C9.4983 11.7576 9.4983 11.7576 9.4983 11.7576C9.4983 11.7576 9.4983 11.7576 9.4983 11.7576C9.4983 11.7576 9.4983 11.7576 9.4983 11.7576C9.4983 11.7576 9.4983 11.7576 9.4983 11.7576C9.4983 11.7576 9.4983 11.7576 9.4983 11.7576C9.4983 11.7576 9.4983 11.7576 9.4983 11.7576C9.4983 11.7576 9.4983 11.7576 9.4983 11.7576C9.49831 11.7576 9.49831 11.7576 9.49831 11.7576C9.49831 11.7576 9.49831 11.7576 9.49831 11.7576C9.49831 11.7576 9.49831 11.7576 9.49831 11.7576C9.49831 11.7576 9.49831 11.7576 9.49831 11.7576C9.49831 11.7576 9.49831 11.7576 9.49831 11.7576C9.49831 11.7576 9.49831 11.7576 9.49831 11.7576C9.49832 11.7576 9.49832 11.7576 9.49832 11.7576C9.49832 11.7576 9.49832 11.7576 9.49832 11.7576C9.49832 11.7576 9.49832 11.7576 9.49832 11.7576C9.49832 11.7576 9.49832 11.7576 9.49832 11.7576C9.49832 11.7576 9.49832 11.7576 9.49833 11.7576C9.49833 11.7576 9.49833 11.7576 9.49833 11.7576C9.49833 11.7576 9.49833 11.7576 9.49833 11.7576C9.49833 11.7576 9.49833 11.7576 9.49833 11.7576C9.49833 11.7576 9.49833 11.7576 9.49834 11.7576C9.49834 11.7576 9.49834 11.7576 9.49834 11.7576C9.49834 11.7576 9.49834 11.7576 9.49834 11.7576C9.49834 11.7576 9.49834 11.7576 9.49834 11.7576C9.49834 11.7576 9.49834 11.7576 9.49835 11.7576C9.49835 11.7576 9.49835 11.7576 9.49835 11.7576C9.49835 11.7576 9.49835 11.7576 9.49835 11.7576C9.49835 11.7576 9.49835 11.7576 9.49835 11.7576C9.49836 11.7576 9.49836 11.7576 9.49836 11.7576C9.49836 11.7576 9.49836 11.7576 9.49836 11.7576C9.49836 11.7576 9.49836 11.7576 9.49836 11.7576C9.49836 11.7576 9.49837 11.7576 9.49837 11.7576C9.49837 11.7576 9.49837 11.7576 9.49837 11.7576C9.49837 11.7576 9.49837 11.7576 9.49837 11.7576C9.49837 11.7576 9.49838 11.7576 9.49838 11.7576C9.49838 11.7576 9.49838 11.7576 9.49838 11.7576C9.49838 11.7576 9.49838 11.7576 9.49838 11.7576C9.49838 11.7576 9.49839 11.7576 9.49839 11.7576C9.49839 11.7576 9.49839 11.7576 9.49839 11.7576C9.49839 11.7576 9.49839 11.7576 9.49839 11.7576C9.49839 11.7576 9.4984 11.7576 9.4984 11.7576C9.4984 11.7576 9.4984 11.7576 9.4984 11.7576C9.4984 11.7576 9.4984 11.7576 9.4984 11.7576C9.49841 11.7576 9.49841 11.7576 9.49841 11.7576C9.49841 11.7576 9.49841 11.7576 9.49841 11.7576C9.49841 11.7576 9.49841 11.7576 9.49842 11.7576C9.49842 11.7576 9.49842 11.7576 9.49842 11.7576C9.49842 11.7576 9.49842 11.7576 9.49842 11.7576C9.49843 11.7576 9.49843 11.7576 9.49843 11.7576C9.49843 11.7576 9.49843 11.7576 9.49843 11.7576C9.49843 11.7576 9.49844 11.7576 9.49844 11.7576C9.49844 11.7576 9.49844 11.7576 9.49844 11.7576C9.49844 11.7576 9.49844 11.7576 9.49845 11.7576C9.49845 11.7576 9.49845 11.7576 9.49845 11.7576C9.49845 11.7576 9.49845 11.7576 9.49845 11.7576C9.49846 11.7576 9.49846 11.7576 9.49846 11.7576C9.49846 11.7576 9.49846 11.7576 9.49846 11.7576C9.49846 11.7576 9.49847 11.7576 9.49847 11.7576C9.49847 11.7576 9.49847 11.7576 9.49847 11.7576C9.49847 11.7576 9.49847 11.7576 9.49848 11.7576C9.49848 11.7576 9.49848 11.7576 9.49848 11.7576C9.49848 11.7576 9.49848 11.7576 9.49849 11.7576C9.49849 11.7576 9.49849 11.7576 9.49849 11.7576C9.49849 11.7576 9.49849 11.7576 9.49849 11.7576C9.4985 11.7576 9.4985 11.7576 9.4985 11.7576C9.4985 11.7576 9.4985 11.7576 9.4985 11.7576C9.49851 11.7576 9.49851 11.7576 9.49851 11.7576C9.49851 11.7576 9.49851 11.7576 9.49851 11.7576C9.49852 11.7576 9.49852 11.7576 9.49852 11.7576C9.49852 11.7576 9.49852 11.7576 9.49852 11.7576C9.49853 11.7576 9.49853 11.7576 9.49853 11.7576C9.49853 11.7576 9.49853 11.7576 9.49853 11.7576C9.49854 11.7576 9.49854 11.7576 9.49854 11.7576C9.49854 11.7576 9.49854 11.7576 9.49854 11.7576C9.49855 11.7576 9.49855 11.7576 9.49855 11.7576C9.49855 11.7576 9.49855 11.7576 9.49855 11.7576C9.49856 11.7576 9.49856 11.7576 9.49856 11.7576C9.49856 11.7576 9.49856 11.7576 9.49857 11.7576C9.49857 11.7576 9.49857 11.7576 9.49857 11.7576C9.49857 11.7576 9.49857 11.7576 9.49858 11.7576C9.49858 11.7576 9.49858 11.7576 9.49858 11.7576C9.49858 11.7576 9.49859 11.7576 9.49859 11.7576C9.49859 11.7576 9.49859 11.7576 9.49859 11.7576C9.49859 11.7576 9.4986 11.7576 9.4986 11.7576C9.4986 11.7576 9.4986 11.7576 9.4986 11.7576C9.49861 11.7576 9.49861 11.7576 9.49861 11.7576C9.49861 11.7576 9.49861 11.7576 9.49861 11.7576C9.49862 11.7576 9.49862 11.7576 9.49862 11.7576C9.49862 11.7576 9.49862 11.7576 9.49863 11.7576C9.49863 11.7576 9.49863 11.7576 9.49863 11.7576C9.49863 11.7576 9.49864 11.7576 9.49864 11.7576C9.49864 11.7576 9.49864 11.7576 9.49864 11.7576C9.49864 11.7576 9.49865 11.7576 9.49865 11.7576C9.49865 11.7576 9.49865 11.7576 9.49865 11.7576C9.49866 11.7576 9.49866 11.7576 9.49866 11.7576C9.49866 11.7576 9.49866 11.7576 9.49867 11.7576C9.49867 11.7576 9.49867 11.7576 9.49867 11.7576C9.49867 11.7576 9.49868 11.7576 9.49868 11.7576C9.49868 11.7576 9.49868 11.7576 9.49868 11.7576C9.49869 11.7576 9.49869 11.7576 9.49869 11.7576C9.49869 11.7576 9.49869 11.7576 9.4987 11.7576C9.4987 11.7576 9.4987 11.7576 9.4987 11.7576C9.4987 11.7576 9.49871 11.7576 9.49871 11.7576C9.49871 11.7576 9.49871 11.7576 9.49871 11.7576C9.49872 11.7576 9.49872 11.7576 9.49872 11.7576C9.49872 11.7576 9.49872 11.7576 9.49873 11.7576C9.49873 11.7576 9.49873 11.7576 9.49873 11.7576C9.49873 11.7576 9.49874 11.7576 9.49874 11.7576C9.49874 11.7576 9.49874 11.7576 9.49874 11.7576C9.49875 11.7576 9.49875 11.7576 9.49875 11.7576C9.49875 11.7576 9.49875 11.7576 9.49876 11.7576C9.49876 11.7576 9.49876 11.7576 9.49876 11.7576C9.49877 11.7576 9.49877 11.7576 9.49877 11.7576C9.49877 11.7576 9.49877 11.7576 9.49878 11.7576C9.49878 11.7576 9.49878 11.7576 9.49878 11.7576C9.49878 11.7576 9.49879 11.7576 9.49879 11.7576C9.49879 11.7576 9.49879 11.7576 9.49879 11.7576C9.4988 11.7576 9.4988 11.7576 9.4988 11.7576C9.4988 11.7576 9.49881 11.7576 9.49881 11.7576C9.49881 11.7576 9.49881 11.7576 9.49881 11.7576C9.49882 11.7576 9.49882 11.7576 9.49882 11.7576C9.49882 11.7576 9.49882 11.7576 9.49883 11.7576C9.49883 11.7576 9.49883 11.7576 9.49883 11.7576C9.49884 11.7576 9.49884 11.7576 9.49884 11.7576C9.49884 11.7576 9.49884 11.7576 9.49885 11.7576C9.49885 11.7576 9.49885 11.7576 9.49885 11.7576C9.49885 11.7576 9.49886 11.7576 9.49886 11.7576C9.49886 11.7576 9.49886 11.7576 9.49887 11.7576C9.49887 11.7576 9.49887 11.7576 9.49887 11.7576C9.49887 11.7576 9.49888 11.7576 9.49888 11.7576C9.49888 11.7576 9.49888 11.7576 9.49889 11.7576C9.49889 11.7576 9.49889 11.7576 9.49889 11.7576C9.49889 11.7576 9.4989 11.7576 9.4989 11.7576C9.4989 11.7576 9.4989 11.7576 9.4989 11.7576C9.49891 11.7576 9.49891 11.7576 9.49891 11.7576C9.49891 11.7576 9.49892 11.7576 9.49892 11.7576C9.49892 11.7576 9.49892 11.7576 9.49892 11.7576C9.49893 11.7576 9.49893 11.7576 9.49893 11.7576C9.49893 11.7576 9.49894 11.7576 9.49894 11.7576C9.49894 11.7576 9.49894 11.7576 9.49894 11.7576C9.49895 11.7576 9.49895 11.7576 9.49895 11.7576C9.49895 11.7576 9.49896 11.7576 9.49896 11.7576C9.49896 11.7576 9.49896 11.7576 9.49896 11.7576C9.49897 11.7576 9.49897 11.7576 9.49897 11.7576C9.49897 11.7576 9.49898 11.7576 9.49898 11.7576C9.49898 11.7576 9.49898 11.7576 9.49898 11.7576C9.49899 11.7576 9.49899 11.7576 9.49899 11.7576C9.49899 11.7576 9.499 11.7576 9.499 11.7576C9.499 11.7576 9.499 11.7576 9.499 11.7576C9.49901 11.7576 9.49901 11.7576 9.49901 11.7576C9.49901 11.7576 9.49902 11.7576 9.49902 11.7576C9.49902 11.7576 9.49902 11.7576 9.49902 11.7576C9.49903 11.7576 9.49903 11.7576 9.49903 11.7576C9.49903 11.7576 9.49904 11.7576 9.49904 11.7576C9.49904 11.7576 9.49904 11.7576 9.49904 11.7576C9.49905 11.7576 9.49905 11.7576 9.49905 11.7576C9.49905 11.7576 9.49906 11.7576 9.49906 11.7576C9.49906 11.7576 9.49906 11.7576 9.49906 11.7576C9.49907 11.7576 9.49907 11.7576 9.49907 11.7576C9.49907 11.7576 9.49908 11.7576 9.49908 11.7576C9.49908 11.7576 9.49908 11.7576 9.49908 11.7576C9.49909 11.7576 9.49909 11.7576 9.49909 11.7576C9.49909 11.7576 9.4991 11.7576 9.4991 11.7576C9.4991 11.7576 9.4991 11.7576 9.4991 11.7576C9.49911 11.7576 9.49911 11.7576 9.49911 11.7576C9.49911 11.7576 9.49912 11.7576 9.49912 11.7576C9.49912 11.7576 9.49912 11.7576 9.49912 11.7576C9.49913 11.7576 9.49913 11.7576 9.49913 11.7576C9.49913 11.7576 9.49914 11.7576 9.49914 11.7576C9.49914 11.7576 9.49914 11.7576 9.49914 11.7576C9.49915 11.7576 9.49915 11.7576 9.49915 11.7576C9.49915 11.7576 9.49916 11.7576 9.49916 11.7576C9.49916 11.7576 9.49916 11.7576 9.49916 11.7576C9.49917 11.7576 9.49917 11.7576 9.49917 11.7576C9.49917 11.7576 9.49918 11.7576 9.49918 11.7576C9.49918 11.7576 9.49918 11.7576 9.49918 11.7576C9.49919 11.7576 9.49919 11.7576 9.49919 11.7576C9.49919 11.7576 9.4992 11.7576 9.4992 11.7576C9.4992 11.7576 9.4992 11.7576 9.4992 11.7576C9.49921 11.7576 9.49921 11.7576 9.49921 11.7576C9.49921 11.7576 9.49921 11.7576 9.49922 11.7576C9.49922 11.7576 9.49922 11.7576 9.49922 11.7576C9.49923 11.7576 9.49923 11.7576 9.49923 11.7576C9.49923 11.7576 9.49923 11.7576 9.49924 11.7576C9.49924 11.7576 9.49924 11.7576 9.49924 11.7576C9.49925 11.7576 9.49925 11.7576 9.49925 11.7576C9.49925 11.7576 9.49925 11.7576 9.49926 11.7576C9.49926 11.7576 9.49926 11.7576 9.49926 11.7576C9.49926 11.7576 9.49927 11.7576 9.49927 11.7576C9.49927 11.7576 9.49927 11.7576 9.49928 11.7576C9.49928 11.7576 9.49928 11.7576 9.49928 11.7576C9.49928 11.7576 9.49929 11.7576 9.49929 11.7576C9.49929 11.7576 9.49929 11.7576 9.49929 11.7576C9.4993 11.7576 9.4993 11.7576 9.4993 11.7576C9.4993 11.7576 9.49931 11.7576 9.49931 11.7576C9.49931 11.7576 9.49931 11.7576 9.49931 11.7576C9.49932 11.7576 9.49932 11.7576 9.49932 11.7576C9.49932 11.7576 9.49932 11.7576 9.49933 11.7576C9.49933 11.7576 9.49933 11.7576 9.49933 11.7576C9.49933 11.7576 9.49934 11.7576 9.49934 11.7576C9.49934 11.7576 9.49934 11.7576 9.49934 11.7576C9.49935 11.7576 9.49935 11.7576 9.49935 11.7576C9.49935 11.7576 9.49936 11.7576 9.49936 11.7576C9.49936 11.7576 9.49936 11.7576 9.49936 11.7576C9.49937 11.7576 9.49937 11.7576 9.49937 11.7576C9.49937 11.7576 9.49937 11.7576 9.49938 11.7576C9.49938 11.7576 9.49938 11.7576 9.49938 11.7576C9.49938 11.7576 9.49939 11.7576 9.49939 11.7576C9.49939 11.7576 9.49939 11.7576 9.49939 11.7576C9.4994 11.7576 9.4994 11.7576 9.4994 11.7576C9.4994 11.7576 9.4994 11.7576 9.49941 11.7576C9.49941 11.7576 9.49941 11.7576 9.49941 11.7576C9.49941 11.7576 9.49942 11.7576 9.49942 11.7576C9.49942 11.7576 9.49942 11.7576 9.49942 11.7576C9.49943 11.7576 9.49943 11.7576 9.49943 11.7576C9.49943 11.7576 9.49943 11.7576 9.49944 11.7576C9.49944 11.7576 9.49944 11.7576 9.49944 11.7576C9.49944 11.7576 9.49945 11.7576 9.49945 11.7576C9.49945 11.7576 9.49945 11.7576 9.49945 11.7576C9.49945 11.7576 9.49946 11.7576 9.49946 11.7576C9.49946 11.7576 9.49946 11.7576 9.49946 11.7576C9.49947 11.7576 9.49947 11.7576 9.49947 11.7576C9.49947 11.7576 9.49947 11.7576 9.49948 11.7576C9.49948 11.7576 9.49948 11.7576 9.49948 11.7576C9.49948 11.7576 9.49949 11.7576 9.49949 11.7576C9.49949 11.7576 9.49949 11.7576 9.49949 11.7576C9.49949 11.7576 9.4995 11.7576 9.4995 11.7576C9.4995 11.7576 9.4995 11.7576 9.4995 11.7576C9.49951 11.7576 9.49951 11.7576 9.49951 11.7576C9.49951 11.7576 9.49951 11.7576 9.49951 11.7576C9.49952 11.7576 9.49952 11.7576 9.49952 11.7576C9.49952 11.7576 9.49952 11.7576 9.49953 11.7576C9.49953 11.7576 9.49953 11.7576 9.49953 11.7576C9.49953 11.7576 9.49953 11.7576 9.49954 11.7576C9.49954 11.7576 9.49954 11.7576 9.49954 11.7576C9.49954 11.7576 9.49954 11.7576 9.49955 11.7576C9.49955 11.7576 9.49955 11.7576 9.49955 11.7576C9.49955 11.7576 9.49956 11.7576 9.49956 11.7576C9.49956 11.7576 9.49956 11.7576 9.49956 11.7576C9.49956 11.7576 9.49957 11.7576 9.49957 11.7576C9.49957 11.7576 9.49957 11.7576 9.49957 11.7576C9.49957 11.7576 9.49958 11.7576 9.49958 11.7576C9.49958 11.7576 9.49958 11.7576 9.49958 11.7576C9.49958 11.7576 9.49959 11.7576 9.49959 11.7576C9.49959 11.7576 9.49959 11.7576 9.49959 11.7576C9.49959 11.7576 9.4996 11.7576 9.4996 11.7576C9.4996 11.7576 9.4996 11.7576 9.4996 11.7576C9.4996 11.7576 9.4996 11.7576 9.49961 11.7576C9.49961 11.7576 9.49961 11.7576 9.49961 11.7576C9.49961 11.7576 9.49961 11.7576 9.49962 11.7576C9.49962 11.7576 9.49962 11.7576 9.49962 11.7576C9.49962 11.7576 9.49962 11.7576 9.49962 11.7576C9.49963 11.7576 9.49963 11.7576 9.49963 11.7576C9.49963 11.7576 9.49963 11.7576 9.49963 11.7576C9.49964 11.7576 9.49964 11.7576 9.49964 11.7576C9.49964 11.7576 9.49964 11.7576 9.49964 11.7576C9.49964 11.7576 9.49965 11.7576 9.49965 11.7576C9.49965 11.7576 9.49965 11.7576 9.49965 11.7576C9.49965 11.7576 9.49965 11.7576 9.49966 11.7576C9.49966 11.7576 9.49966 11.7576 9.49966 11.7576C9.49966 11.7576 9.49966 11.7576 9.49966 11.7576C9.49967 11.7576 9.49967 11.7576 9.49967 11.7576C9.49967 11.7576 9.49967 11.7576 9.49967 11.7576C9.49967 11.7576 9.49967 11.7576 9.49968 11.7576C9.49968 11.7576 9.49968 11.7576 9.49968 11.7576C9.49968 11.7576 9.49968 11.7576 9.49968 11.7576C9.49969 11.7576 9.49969 11.7576 9.49969 11.7576C9.49969 11.7576 9.49969 11.7576 9.49969 11.7576C9.49969 11.7576 9.49969 11.7576 9.4997 11.7576C9.4997 11.7576 9.4997 11.7576 9.4997 11.7576C9.4997 11.7576 9.4997 11.7576 9.4997 11.7576C9.4997 11.7576 9.49971 11.7576 9.49971 11.7576C9.49971 11.7576 9.49971 11.7576 9.49971 11.7576C9.49971 11.7576 9.49971 11.7576 9.49971 11.7576C9.49971 11.7576 9.49972 11.7576 9.49972 11.7576C9.49972 11.7576 9.49972 11.7576 9.49972 11.7576C9.49972 11.7576 9.49972 11.7576 9.49972 11.7576C9.49972 11.7576 9.49973 11.7576 9.49973 11.7576C9.49973 11.7576 9.49973 11.7576 9.49973 11.7576C9.49973 11.7576 9.49973 11.7576 9.49973 11.7576C9.49973 11.7576 9.49974 11.7576 9.49974 11.7576C9.49974 11.7576 9.49974 11.7576 9.49974 11.7576C9.49974 11.7576 9.49974 11.7576 9.49974 11.7576C9.49974 11.7576 9.49974 11.7576 9.49975 11.7576C9.49975 11.7576 9.49975 11.7576 9.49975 11.7576C9.49975 11.7576 9.49975 11.7576 9.49975 11.7576C9.49975 11.7576 9.49975 11.7576 9.49975 11.7576C9.49975 11.7576 9.49976 11.7576 9.49976 11.7576C9.49976 11.7576 9.49976 11.7576 9.49976 11.7576C9.49976 11.7576 9.49976 11.7576 9.49976 11.7576C9.49976 11.7576 9.49976 11.7576 9.49976 11.7576C9.49976 11.7576 9.49977 11.7576 9.49977 11.7576C9.49977 11.7576 9.49977 11.7576 9.49977 11.7576C9.49977 11.7576 9.49977 11.7576 9.49977 11.7576C9.49977 11.7576 9.49977 11.7576 9.49977 11.7576C9.49977 11.7576 9.49977 11.7576 9.49978 11.7576C9.49978 11.7576 9.49978 11.7576 9.49978 11.7576C9.49978 11.7576 9.49978 11.7576 9.49978 11.7576C9.49978 11.7576 9.49978 11.7576 9.49978 11.7576C9.49978 11.7576 9.49978 11.7576 9.49978 11.7576C9.49978 11.7576 9.49979 11.7576 9.49979 11.7576C9.49979 11.7576 9.49979 11.7576 9.49979 11.7576C9.49979 11.7576 9.49979 11.7576 9.49979 11.7576C9.49979 11.7576 9.49979 11.7576 9.49979 11.7576C9.49979 11.7576 9.49979 11.7576 9.49979 11.7576C9.49979 11.7576 9.49979 11.7576 9.49979 11.7576C9.49979 11.7576 9.49979 11.7576 9.4998 11.7576C9.4998 11.7576 9.4998 11.7576 9.4998 11.7576C9.4998 11.7576 9.4998 11.7576 9.4998 11.7576C9.4998 11.7576 9.4998 11.7576 9.4998 11.7576C9.4998 11.7576 9.4998 11.7576 9.4998 11.7576C9.4998 11.7576 9.4998 11.7576 9.4998 11.7576C9.4998 11.7576 9.4998 11.7576 9.4998 11.7576C9.4998 11.7576 9.4998 11.7576 9.4998 11.7576C9.4998 11.7576 9.4998 11.7576 9.4998 11.7576H9.49981C9.49981 11.7576 9.49981 11.7576 9.49981 11.7576H9.49981C9.49981 11.7576 9.49981 11.7576 9.49981 11.7576C9.49981 11.7576 9.49981 11.7576 9.49981 11.7576C9.49981 11.7576 9.49981 11.7576 9.49981 11.7576C9.49981 11.7576 9.49981 11.7576 9.49981 11.7576C9.49981 11.7576 9.49981 11.7576 9.49981 11.7576C9.49981 10.7576 9.49981 9.75759 9.49981 9.75759C9.49981 9.75759 9.49981 9.75759 9.49981 9.75759H9.49981C9.49981 9.75759 9.49981 9.75759 9.49981 9.75759C9.49981 9.75759 9.49981 9.75759 9.49981 9.75759C9.49981 9.75759 9.49981 9.75759 9.49981 9.75759H9.49981C9.49981 9.75759 9.49981 9.75759 9.49981 9.75759C9.49981 9.75759 9.49981 9.75759 9.4998 9.75759H9.4998C9.4998 9.75759 9.4998 9.75759 9.4998 9.75759C9.4998 9.75759 9.4998 9.75759 9.4998 9.75759C9.4998 9.75759 9.4998 9.75759 9.4998 9.75759C9.4998 9.75759 9.4998 9.75759 9.4998 9.75759C9.4998 9.75759 9.4998 9.75759 9.4998 9.75759C9.4998 9.75759 9.4998 9.75759 9.4998 9.75759C9.4998 9.75759 9.4998 9.75759 9.4998 9.75759C9.49979 9.75759 9.49979 9.75759 9.49979 9.75759C9.49979 9.75759 9.49979 9.75759 9.49979 9.75759C9.49979 9.75759 9.49979 9.75759 9.49979 9.75759C9.49979 9.75759 9.49979 9.75759 9.49979 9.75759C9.49979 9.75759 9.49979 9.75759 9.49979 9.75759C9.49979 9.75759 9.49979 9.75759 9.49978 9.75759C9.49978 9.75759 9.49978 9.75759 9.49978 9.75759C9.49978 9.75759 9.49978 9.75759 9.49978 9.75759C9.49978 9.75759 9.49978 9.75759 9.49978 9.75759C9.49978 9.75759 9.49978 9.75759 9.49978 9.75759C9.49977 9.75759 9.49977 9.75759 9.49977 9.75759C9.49977 9.75759 9.49977 9.75759 9.49977 9.75759C9.49977 9.75759 9.49977 9.75759 9.49977 9.75759C9.49977 9.75759 9.49977 9.75759 9.49977 9.75759C9.49976 9.75759 9.49976 9.75759 9.49976 9.75759C9.49976 9.75759 9.49976 9.75759 9.49976 9.75759C9.49976 9.75759 9.49976 9.75759 9.49976 9.75759C9.49976 9.75759 9.49975 9.75759 9.49975 9.75759C9.49975 9.75759 9.49975 9.75759 9.49975 9.75759C9.49975 9.75759 9.49975 9.75759 9.49975 9.75759C9.49975 9.75759 9.49974 9.75759 9.49974 9.75759C9.49974 9.75759 9.49974 9.75759 9.49974 9.75759C9.49974 9.75759 9.49974 9.75759 9.49974 9.75759C9.49973 9.75759 9.49973 9.75759 9.49973 9.75759C9.49973 9.75759 9.49973 9.75759 9.49973 9.75759C9.49973 9.75759 9.49973 9.75759 9.49972 9.75759C9.49972 9.75759 9.49972 9.75759 9.49972 9.75759C9.49972 9.75759 9.49972 9.75759 9.49972 9.75759C9.49972 9.75759 9.49971 9.75759 9.49971 9.75759C9.49971 9.75759 9.49971 9.75759 9.49971 9.75759C9.49971 9.75759 9.49971 9.75759 9.4997 9.75759C9.4997 9.75759 9.4997 9.75759 9.4997 9.75759C9.4997 9.75759 9.4997 9.75759 9.49969 9.75759C9.49969 9.75759 9.49969 9.75759 9.49969 9.75759C9.49969 9.75759 9.49969 9.75759 9.49969 9.75759C9.49968 9.75759 9.49968 9.75759 9.49968 9.75759C9.49968 9.75759 9.49968 9.75759 9.49968 9.75759C9.49967 9.75759 9.49967 9.75759 9.49967 9.75759C9.49967 9.75759 9.49967 9.75759 9.49966 9.75759C9.49966 9.75759 9.49966 9.75759 9.49966 9.75759C9.49966 9.75759 9.49966 9.75759 9.49965 9.75759C9.49965 9.75759 9.49965 9.75759 9.49965 9.75759C9.49965 9.75759 9.49964 9.75759 9.49964 9.75759C9.49964 9.75759 9.49964 9.75759 9.49964 9.75759C9.49964 9.75759 9.49963 9.75759 9.49963 9.75759C9.49963 9.75759 9.49963 9.75759 9.49963 9.75759C9.49962 9.75759 9.49962 9.75759 9.49962 9.75759C9.49962 9.75759 9.49962 9.75759 9.49961 9.75759C9.49961 9.75759 9.49961 9.75759 9.49961 9.75759C9.4996 9.75759 9.4996 9.75759 9.4996 9.75759C9.4996 9.75759 9.4996 9.75759 9.49959 9.75759C9.49959 9.75759 9.49959 9.75759 9.49959 9.75759C9.49958 9.75759 9.49958 9.75759 9.49958 9.75759C9.49958 9.75759 9.49958 9.75759 9.49957 9.75759C9.49957 9.75759 9.49957 9.75759 9.49957 9.75759C9.49956 9.75759 9.49956 9.75759 9.49956 9.75759C9.49956 9.75759 9.49955 9.75759 9.49955 9.75759C9.49955 9.75759 9.49955 9.75759 9.49955 9.75759C9.49954 9.75759 9.49954 9.75759 9.49954 9.75759C9.49954 9.75759 9.49953 9.75759 9.49953 9.75759C9.49953 9.75759 9.49953 9.75759 9.49952 9.75759C9.49952 9.75759 9.49952 9.75759 9.49951 9.75759C9.49951 9.75759 9.49951 9.75759 9.49951 9.75759C9.4995 9.75759 9.4995 9.75759 9.4995 9.75759C9.4995 9.75759 9.49949 9.75759 9.49949 9.75759C9.49949 9.75759 9.49949 9.75759 9.49948 9.75759C9.49948 9.75759 9.49948 9.75759 9.49947 9.75759C9.49947 9.75759 9.49947 9.75759 9.49947 9.75759C9.49946 9.75759 9.49946 9.75759 9.49946 9.75759C9.49945 9.75759 9.49945 9.75759 9.49945 9.75759C9.49945 9.75759 9.49944 9.75759 9.49944 9.75759C9.49944 9.75759 9.49943 9.75759 9.49943 9.75759C9.49943 9.75759 9.49942 9.75759 9.49942 9.75759C9.49942 9.75759 9.49942 9.75759 9.49941 9.75759C9.49941 9.75759 9.49941 9.75759 9.4994 9.75759C9.4994 9.75759 9.4994 9.75759 9.49939 9.75759C9.49939 9.75759 9.49939 9.75759 9.49938 9.75759C9.49938 9.75759 9.49938 9.75759 9.49937 9.75759C9.49937 9.75759 9.49937 9.75759 9.49936 9.75759C9.49936 9.75759 9.49936 9.75759 9.49935 9.75759C9.49935 9.75759 9.49935 9.75759 9.49934 9.75759C9.49934 9.75759 9.49934 9.75759 9.49933 9.75759C9.49933 9.75759 9.49933 9.75759 9.49932 9.75759C9.49932 9.75759 9.49932 9.75759 9.49931 9.75759C9.49931 9.75759 9.49931 9.75759 9.4993 9.75759C9.4993 9.75759 9.4993 9.75759 9.49929 9.75759C9.49929 9.75759 9.49929 9.75759 9.49928 9.75759C9.49928 9.75759 9.49927 9.75759 9.49927 9.75759C9.49927 9.75759 9.49926 9.75759 9.49926 9.75759C9.49926 9.75759 9.49925 9.75759 9.49925 9.75759C9.49925 9.75759 9.49924 9.75759 9.49924 9.75759C9.49923 9.75759 9.49923 9.75759 9.49923 9.75759C9.49922 9.75759 9.49922 9.75759 9.49921 9.75759C9.49921 9.75759 9.49921 9.75759 9.4992 9.75759C9.4992 9.75759 9.4992 9.75759 9.49919 9.75759C9.49919 9.75759 9.49918 9.75759 9.49918 9.75759C9.49918 9.75759 9.49917 9.75759 9.49917 9.75759C9.49916 9.75759 9.49916 9.75759 9.49916 9.75759C9.49915 9.75759 9.49915 9.75759 9.49914 9.75759C9.49914 9.75759 9.49913 9.75759 9.49913 9.75759C9.49913 9.75759 9.49912 9.75759 9.49912 9.75759C9.49911 9.75759 9.49911 9.75759 9.4991 9.75759C9.4991 9.75759 9.4991 9.75759 9.49909 9.75759C9.49909 9.75759 9.49908 9.75759 9.49908 9.75759C9.49907 9.75759 9.49907 9.75759 9.49907 9.75759C9.49906 9.75759 9.49906 9.75759 9.49905 9.75759C9.49905 9.75759 9.49904 9.75759 9.49904 9.75759C9.49903 9.75759 9.49903 9.75759 9.49903 9.75759C9.49902 9.75759 9.49902 9.75759 9.49901 9.75759C9.49901 9.75759 9.499 9.75759 9.499 9.75759C9.49899 9.75759 9.49899 9.75759 9.49898 9.75759C9.49898 9.75759 9.49897 9.75759 9.49897 9.75759C9.49897 9.75759 9.49896 9.75759 9.49896 9.75759C9.49895 9.75759 9.49895 9.75759 9.49894 9.75759C9.49894 9.75759 9.49893 9.75759 9.49893 9.75759C9.49892 9.75759 9.49892 9.75759 9.49891 9.75759C9.49891 9.75759 9.4989 9.75759 9.4989 9.75759C9.49889 9.75759 9.49889 9.75759 9.49888 9.75759C9.49888 9.75759 9.49887 9.75759 9.49887 9.75759C9.49886 9.75759 9.49886 9.75759 9.49885 9.75759C9.49885 9.75759 9.49884 9.75759 9.49884 9.75759C9.49883 9.75759 9.49883 9.75759 9.49882 9.75759C9.49882 9.75759 9.49881 9.75759 9.49881 9.75759C9.4988 9.75759 9.4988 9.75759 9.49879 9.75759C9.49878 9.75759 9.49878 9.75759 9.49877 9.75759C9.49877 9.75759 9.49876 9.75759 9.49876 9.75759C9.49875 9.75759 9.49875 9.75759 9.49874 9.75759C9.49874 9.75759 9.49873 9.75759 9.49873 9.75759C9.49872 9.75759 9.49871 9.75759 9.49871 9.75759C9.4987 9.75759 9.4987 9.75759 9.49869 9.75759C9.49869 9.75759 9.49868 9.75759 9.49868 9.75759C9.49867 9.75759 9.49866 9.75759 9.49866 9.75759C9.49865 9.75759 9.49865 9.75759 9.49864 9.75759C9.49864 9.75759 9.49863 9.75759 9.49862 9.75759C9.49862 9.75759 9.49861 9.75759 9.49861 9.75759C9.4986 9.75759 9.4986 9.75759 9.49859 9.75759C9.49858 9.75759 9.49858 9.75759 9.49857 9.75759C9.49857 9.75759 9.49856 9.75759 9.49855 9.75759C9.49855 9.75759 9.49854 9.75759 9.49854 9.75759C9.49853 9.75759 9.49852 9.75759 9.49852 9.75759C9.49851 9.75759 9.49851 9.75759 9.4985 9.75759C9.49849 9.75759 9.49849 9.75759 9.49848 9.75759C9.49847 9.75759 9.49847 9.75759 9.49846 9.75759C9.49846 9.75759 9.49845 9.75759 9.49844 9.75759C9.49844 9.75759 9.49843 9.75759 9.49842 9.75759C9.49842 9.75759 9.49841 9.75759 9.49841 9.75759C9.4984 9.75759 9.49839 9.75759 9.49839 9.75759C9.49838 9.75759 9.49837 9.75759 9.49837 9.75759C9.49836 9.75759 9.49835 9.75759 9.49835 9.75759C9.49834 9.75759 9.49833 9.75759 9.49833 9.75759C9.49832 9.75759 9.49831 9.75759 9.49831 9.75759C9.4983 9.75759 9.49829 9.75759 9.49829 9.75759V11.7576C9.49829 11.7576 9.4983 11.7576 9.49831 11.7576C9.49831 11.7576 9.49832 11.7576 9.49833 11.7576C9.49833 11.7576 9.49834 11.7576 9.49835 11.7576C9.49835 11.7576 9.49836 11.7576 9.49837 11.7576C9.49837 11.7576 9.49838 11.7576 9.49839 11.7576C9.49839 11.7576 9.4984 11.7576 9.49841 11.7576C9.49841 11.7576 9.49842 11.7576 9.49842 11.7576C9.49843 11.7576 9.49844 11.7576 9.49844 11.7576C9.49845 11.7576 9.49846 11.7576 9.49846 11.7576C9.49847 11.7576 9.49847 11.7576 9.49848 11.7576C9.49849 11.7576 9.49849 11.7576 9.4985 11.7576C9.49851 11.7576 9.49851 11.7576 9.49852 11.7576C9.49852 11.7576 9.49853 11.7576 9.49854 11.7576C9.49854 11.7576 9.49855 11.7576 9.49855 11.7576C9.49856 11.7576 9.49857 11.7576 9.49857 11.7576C9.49858 11.7576 9.49858 11.7576 9.49859 11.7576C9.4986 11.7576 9.4986 11.7576 9.49861 11.7576C9.49861 11.7576 9.49862 11.7576 9.49862 11.7576C9.49863 11.7576 9.49864 11.7576 9.49864 11.7576C9.49865 11.7576 9.49865 11.7576 9.49866 11.7576C9.49866 11.7576 9.49867 11.7576 9.49868 11.7576C9.49868 11.7576 9.49869 11.7576 9.49869 11.7576C9.4987 11.7576 9.4987 11.7576 9.49871 11.7576C9.49871 11.7576 9.49872 11.7576 9.49873 11.7576C9.49873 11.7576 9.49874 11.7576 9.49874 11.7576C9.49875 11.7576 9.49875 11.7576 9.49876 11.7576C9.49876 11.7576 9.49877 11.7576 9.49877 11.7576C9.49878 11.7576 9.49878 11.7576 9.49879 11.7576C9.4988 11.7576 9.4988 11.7576 9.49881 11.7576C9.49881 11.7576 9.49882 11.7576 9.49882 11.7576C9.49883 11.7576 9.49883 11.7576 9.49884 11.7576C9.49884 11.7576 9.49885 11.7576 9.49885 11.7576C9.49886 11.7576 9.49886 11.7576 9.49887 11.7576C9.49887 11.7576 9.49888 11.7576 9.49888 11.7576C9.49889 11.7576 9.49889 11.7576 9.4989 11.7576C9.4989 11.7576 9.49891 11.7576 9.49891 11.7576C9.49892 11.7576 9.49892 11.7576 9.49893 11.7576C9.49893 11.7576 9.49894 11.7576 9.49894 11.7576C9.49895 11.7576 9.49895 11.7576 9.49896 11.7576C9.49896 11.7576 9.49897 11.7576 9.49897 11.7576C9.49897 11.7576 9.49898 11.7576 9.49898 11.7576C9.49899 11.7576 9.49899 11.7576 9.499 11.7576C9.499 11.7576 9.49901 11.7576 9.49901 11.7576C9.49902 11.7576 9.49902 11.7576 9.49903 11.7576C9.49903 11.7576 9.49903 11.7576 9.49904 11.7576C9.49904 11.7576 9.49905 11.7576 9.49905 11.7576C9.49906 11.7576 9.49906 11.7576 9.49907 11.7576C9.49907 11.7576 9.49907 11.7576 9.49908 11.7576C9.49908 11.7576 9.49909 11.7576 9.49909 11.7576C9.4991 11.7576 9.4991 11.7576 9.4991 11.7576C9.49911 11.7576 9.49911 11.7576 9.49912 11.7576C9.49912 11.7576 9.49913 11.7576 9.49913 11.7576C9.49913 11.7576 9.49914 11.7576 9.49914 11.7576C9.49915 11.7576 9.49915 11.7576 9.49916 11.7576C9.49916 11.7576 9.49916 11.7576 9.49917 11.7576C9.49917 11.7576 9.49918 11.7576 9.49918 11.7576C9.49918 11.7576 9.49919 11.7576 9.49919 11.7576C9.4992 11.7576 9.4992 11.7576 9.4992 11.7576C9.49921 11.7576 9.49921 11.7576 9.49921 11.7576C9.49922 11.7576 9.49922 11.7576 9.49923 11.7576C9.49923 11.7576 9.49923 11.7576 9.49924 11.7576C9.49924 11.7576 9.49925 11.7576 9.49925 11.7576C9.49925 11.7576 9.49926 11.7576 9.49926 11.7576C9.49926 11.7576 9.49927 11.7576 9.49927 11.7576C9.49927 11.7576 9.49928 11.7576 9.49928 11.7576C9.49929 11.7576 9.49929 11.7576 9.49929 11.7576C9.4993 11.7576 9.4993 11.7576 9.4993 11.7576C9.49931 11.7576 9.49931 11.7576 9.49931 11.7576C9.49932 11.7576 9.49932 11.7576 9.49932 11.7576C9.49933 11.7576 9.49933 11.7576 9.49933 11.7576C9.49934 11.7576 9.49934 11.7576 9.49934 11.7576C9.49935 11.7576 9.49935 11.7576 9.49935 11.7576C9.49936 11.7576 9.49936 11.7576 9.49936 11.7576C9.49937 11.7576 9.49937 11.7576 9.49937 11.7576C9.49938 11.7576 9.49938 11.7576 9.49938 11.7576C9.49939 11.7576 9.49939 11.7576 9.49939 11.7576C9.4994 11.7576 9.4994 11.7576 9.4994 11.7576C9.49941 11.7576 9.49941 11.7576 9.49941 11.7576C9.49942 11.7576 9.49942 11.7576 9.49942 11.7576C9.49942 11.7576 9.49943 11.7576 9.49943 11.7576C9.49943 11.7576 9.49944 11.7576 9.49944 11.7576C9.49944 11.7576 9.49945 11.7576 9.49945 11.7576C9.49945 11.7576 9.49945 11.7576 9.49946 11.7576C9.49946 11.7576 9.49946 11.7576 9.49947 11.7576C9.49947 11.7576 9.49947 11.7576 9.49947 11.7576C9.49948 11.7576 9.49948 11.7576 9.49948 11.7576C9.49949 11.7576 9.49949 11.7576 9.49949 11.7576C9.49949 11.7576 9.4995 11.7576 9.4995 11.7576C9.4995 11.7576 9.4995 11.7576 9.49951 11.7576C9.49951 11.7576 9.49951 11.7576 9.49951 11.7576C9.49952 11.7576 9.49952 11.7576 9.49952 11.7576C9.49953 11.7576 9.49953 11.7576 9.49953 11.7576C9.49953 11.7576 9.49954 11.7576 9.49954 11.7576C9.49954 11.7576 9.49954 11.7576 9.49955 11.7576C9.49955 11.7576 9.49955 11.7576 9.49955 11.7576C9.49955 11.7576 9.49956 11.7576 9.49956 11.7576C9.49956 11.7576 9.49956 11.7576 9.49957 11.7576C9.49957 11.7576 9.49957 11.7576 9.49957 11.7576C9.49958 11.7576 9.49958 11.7576 9.49958 11.7576C9.49958 11.7576 9.49958 11.7576 9.49959 11.7576C9.49959 11.7576 9.49959 11.7576 9.49959 11.7576C9.4996 11.7576 9.4996 11.7576 9.4996 11.7576C9.4996 11.7576 9.4996 11.7576 9.49961 11.7576C9.49961 11.7576 9.49961 11.7576 9.49961 11.7576C9.49962 11.7576 9.49962 11.7576 9.49962 11.7576C9.49962 11.7576 9.49962 11.7576 9.49963 11.7576C9.49963 11.7576 9.49963 11.7576 9.49963 11.7576C9.49963 11.7576 9.49964 11.7576 9.49964 11.7576C9.49964 11.7576 9.49964 11.7576 9.49964 11.7576C9.49964 11.7576 9.49965 11.7576 9.49965 11.7576C9.49965 11.7576 9.49965 11.7576 9.49965 11.7576C9.49966 11.7576 9.49966 11.7576 9.49966 11.7576C9.49966 11.7576 9.49966 11.7576 9.49966 11.7576C9.49967 11.7576 9.49967 11.7576 9.49967 11.7576C9.49967 11.7576 9.49967 11.7576 9.49968 11.7576C9.49968 11.7576 9.49968 11.7576 9.49968 11.7576C9.49968 11.7576 9.49968 11.7576 9.49969 11.7576C9.49969 11.7576 9.49969 11.7576 9.49969 11.7576C9.49969 11.7576 9.49969 11.7576 9.49969 11.7576C9.4997 11.7576 9.4997 11.7576 9.4997 11.7576C9.4997 11.7576 9.4997 11.7576 9.4997 11.7576C9.49971 11.7576 9.49971 11.7576 9.49971 11.7576C9.49971 11.7576 9.49971 11.7576 9.49971 11.7576C9.49971 11.7576 9.49972 11.7576 9.49972 11.7576C9.49972 11.7576 9.49972 11.7576 9.49972 11.7576C9.49972 11.7576 9.49972 11.7576 9.49972 11.7576C9.49973 11.7576 9.49973 11.7576 9.49973 11.7576C9.49973 11.7576 9.49973 11.7576 9.49973 11.7576C9.49973 11.7576 9.49973 11.7576 9.49974 11.7576C9.49974 11.7576 9.49974 11.7576 9.49974 11.7576C9.49974 11.7576 9.49974 11.7576 9.49974 11.7576C9.49974 11.7576 9.49975 11.7576 9.49975 11.7576C9.49975 11.7576 9.49975 11.7576 9.49975 11.7576C9.49975 11.7576 9.49975 11.7576 9.49975 11.7576C9.49975 11.7576 9.49976 11.7576 9.49976 11.7576C9.49976 11.7576 9.49976 11.7576 9.49976 11.7576C9.49976 11.7576 9.49976 11.7576 9.49976 11.7576C9.49976 11.7576 9.49976 11.7576 9.49977 11.7576C9.49977 11.7576 9.49977 11.7576 9.49977 11.7576C9.49977 11.7576 9.49977 11.7576 9.49977 11.7576C9.49977 11.7576 9.49977 11.7576 9.49977 11.7576C9.49977 11.7576 9.49977 11.7576 9.49978 11.7576C9.49978 11.7576 9.49978 11.7576 9.49978 11.7576C9.49978 11.7576 9.49978 11.7576 9.49978 11.7576C9.49978 11.7576 9.49978 11.7576 9.49978 11.7576C9.49978 11.7576 9.49978 11.7576 9.49978 11.7576C9.49979 11.7576 9.49979 11.7576 9.49979 11.7576C9.49979 11.7576 9.49979 11.7576 9.49979 11.7576C9.49979 11.7576 9.49979 11.7576 9.49979 11.7576C9.49979 11.7576 9.49979 11.7576 9.49979 11.7576C9.49979 11.7576 9.49979 11.7576 9.49979 11.7576C9.49979 11.7576 9.49979 11.7576 9.4998 11.7576C9.4998 11.7576 9.4998 11.7576 9.4998 11.7576C9.4998 11.7576 9.4998 11.7576 9.4998 11.7576C9.4998 11.7576 9.4998 11.7576 9.4998 11.7576C9.4998 11.7576 9.4998 11.7576 9.4998 11.7576C9.4998 11.7576 9.4998 11.7576 9.4998 11.7576C9.4998 11.7576 9.4998 11.7576 9.4998 11.7576C9.4998 11.7576 9.4998 11.7576 9.4998 11.7576H9.4998C9.49981 11.7576 9.49981 11.7576 9.49981 11.7576C9.49981 11.7576 9.49981 11.7576 9.49981 11.7576H9.49981C9.49981 11.7576 9.49981 11.7576 9.49981 11.7576C9.49981 11.7576 9.49981 11.7576 9.49981 11.7576C9.49981 11.7576 9.49981 11.7576 9.49981 11.7576H9.49981C9.49981 11.7576 9.49981 11.7576 9.49981 11.7576C9.49981 11.7576 9.49981 10.7576 9.49981 9.75759C9.49981 9.75759 9.49981 9.75759 9.49981 9.75759C9.49981 9.75759 9.49981 9.75759 9.49981 9.75759C9.49981 9.75759 9.49981 9.75759 9.49981 9.75759C9.49981 9.75759 9.49981 9.75759 9.49981 9.75759C9.49981 9.75759 9.49981 9.75759 9.49981 9.75759H9.49981C9.49981 9.75759 9.49981 9.75759 9.49981 9.75759H9.4998C9.4998 9.75759 9.4998 9.75759 9.4998 9.75759C9.4998 9.75759 9.4998 9.75759 9.4998 9.75759C9.4998 9.75759 9.4998 9.75759 9.4998 9.75759C9.4998 9.75759 9.4998 9.75759 9.4998 9.75759C9.4998 9.75759 9.4998 9.75759 9.4998 9.75759C9.4998 9.75759 9.4998 9.75759 9.4998 9.75759C9.4998 9.75759 9.4998 9.75759 9.4998 9.75759C9.4998 9.75759 9.4998 9.75759 9.4998 9.75759C9.49979 9.75759 9.49979 9.75759 9.49979 9.75759C9.49979 9.75759 9.49979 9.75759 9.49979 9.75759C9.49979 9.75759 9.49979 9.75759 9.49979 9.75759C9.49979 9.75759 9.49979 9.75759 9.49979 9.75759C9.49979 9.75759 9.49979 9.75759 9.49979 9.75759C9.49979 9.75759 9.49979 9.75759 9.49979 9.75759C9.49979 9.75759 9.49978 9.75759 9.49978 9.75759C9.49978 9.75759 9.49978 9.75759 9.49978 9.75759C9.49978 9.75759 9.49978 9.75759 9.49978 9.75759C9.49978 9.75759 9.49978 9.75759 9.49978 9.75759C9.49978 9.75759 9.49978 9.75759 9.49978 9.75759C9.49977 9.75759 9.49977 9.75759 9.49977 9.75759C9.49977 9.75759 9.49977 9.75759 9.49977 9.75759C9.49977 9.75759 9.49977 9.75759 9.49977 9.75759C9.49977 9.75759 9.49977 9.75759 9.49977 9.75759C9.49977 9.75759 9.49976 9.75759 9.49976 9.75759C9.49976 9.75759 9.49976 9.75759 9.49976 9.75759C9.49976 9.75759 9.49976 9.75759 9.49976 9.75759C9.49976 9.75759 9.49976 9.75759 9.49976 9.75759C9.49976 9.75759 9.49975 9.75759 9.49975 9.75759C9.49975 9.75759 9.49975 9.75759 9.49975 9.75759C9.49975 9.75759 9.49975 9.75759 9.49975 9.75759C9.49975 9.75759 9.49975 9.75759 9.49975 9.75759C9.49974 9.75759 9.49974 9.75759 9.49974 9.75759C9.49974 9.75759 9.49974 9.75759 9.49974 9.75759C9.49974 9.75759 9.49974 9.75759 9.49974 9.75759C9.49974 9.75759 9.49973 9.75759 9.49973 9.75759C9.49973 9.75759 9.49973 9.75759 9.49973 9.75759C9.49973 9.75759 9.49973 9.75759 9.49973 9.75759C9.49973 9.75759 9.49972 9.75759 9.49972 9.75759C9.49972 9.75759 9.49972 9.75759 9.49972 9.75759C9.49972 9.75759 9.49972 9.75759 9.49972 9.75759C9.49972 9.75759 9.49971 9.75759 9.49971 9.75759C9.49971 9.75759 9.49971 9.75759 9.49971 9.75759C9.49971 9.75759 9.49971 9.75759 9.49971 9.75759C9.49971 9.75759 9.4997 9.75759 9.4997 9.75759C9.4997 9.75759 9.4997 9.75759 9.4997 9.75759C9.4997 9.75759 9.4997 9.75759 9.4997 9.75759C9.49969 9.75759 9.49969 9.75759 9.49969 9.75759C9.49969 9.75759 9.49969 9.75759 9.49969 9.75759C9.49969 9.75759 9.49969 9.75759 9.49968 9.75759C9.49968 9.75759 9.49968 9.75759 9.49968 9.75759C9.49968 9.75759 9.49968 9.75759 9.49968 9.75759C9.49967 9.75759 9.49967 9.75759 9.49967 9.75759C9.49967 9.75759 9.49967 9.75759 9.49967 9.75759C9.49967 9.75759 9.49967 9.75759 9.49966 9.75759C9.49966 9.75759 9.49966 9.75759 9.49966 9.75759C9.49966 9.75759 9.49966 9.75759 9.49966 9.75759C9.49965 9.75759 9.49965 9.75759 9.49965 9.75759C9.49965 9.75759 9.49965 9.75759 9.49965 9.75759C9.49965 9.75759 9.49964 9.75759 9.49964 9.75759C9.49964 9.75759 9.49964 9.75759 9.49964 9.75759C9.49964 9.75759 9.49964 9.75759 9.49963 9.75759C9.49963 9.75759 9.49963 9.75759 9.49963 9.75759C9.49963 9.75759 9.49963 9.75759 9.49962 9.75759C9.49962 9.75759 9.49962 9.75759 9.49962 9.75759C9.49962 9.75759 9.49962 9.75759 9.49962 9.75759C9.49961 9.75759 9.49961 9.75759 9.49961 9.75759C9.49961 9.75759 9.49961 9.75759 9.49961 9.75759C9.4996 9.75759 9.4996 9.75759 9.4996 9.75759C9.4996 9.75759 9.4996 9.75759 9.4996 9.75759C9.4996 9.75759 9.49959 9.75759 9.49959 9.75759C9.49959 9.75759 9.49959 9.75759 9.49959 9.75759C9.49959 9.75759 9.49958 9.75759 9.49958 9.75759C9.49958 9.75759 9.49958 9.75759 9.49958 9.75759C9.49958 9.75759 9.49957 9.75759 9.49957 9.75759C9.49957 9.75759 9.49957 9.75759 9.49957 9.75759C9.49957 9.75759 9.49956 9.75759 9.49956 9.75759C9.49956 9.75759 9.49956 9.75759 9.49956 9.75759C9.49956 9.75759 9.49955 9.75759 9.49955 9.75759C9.49955 9.75759 9.49955 9.75759 9.49955 9.75759C9.49954 9.75759 9.49954 9.75759 9.49954 9.75759C9.49954 9.75759 9.49954 9.75759 9.49954 9.75759C9.49953 9.75759 9.49953 9.75759 9.49953 9.75759C9.49953 9.75759 9.49953 9.75759 9.49953 9.75759C9.49952 9.75759 9.49952 9.75759 9.49952 9.75759C9.49952 9.75759 9.49952 9.75759 9.49951 9.75759C9.49951 9.75759 9.49951 9.75759 9.49951 9.75759C9.49951 9.75759 9.49951 9.75759 9.4995 9.75759C9.4995 9.75759 9.4995 9.75759 9.4995 9.75759C9.4995 9.75759 9.49949 9.75759 9.49949 9.75759C9.49949 9.75759 9.49949 9.75759 9.49949 9.75759C9.49949 9.75759 9.49948 9.75759 9.49948 9.75759C9.49948 9.75759 9.49948 9.75759 9.49948 9.75759C9.49947 9.75759 9.49947 9.75759 9.49947 9.75759C9.49947 9.75759 9.49947 9.75759 9.49946 9.75759C9.49946 9.75759 9.49946 9.75759 9.49946 9.75759C9.49946 9.75759 9.49945 9.75759 9.49945 9.75759C9.49945 9.75759 9.49945 9.75759 9.49945 9.75759C9.49945 9.75759 9.49944 9.75759 9.49944 9.75759C9.49944 9.75759 9.49944 9.75759 9.49944 9.75759C9.49943 9.75759 9.49943 9.75759 9.49943 9.75759C9.49943 9.75759 9.49943 9.75759 9.49942 9.75759C9.49942 9.75759 9.49942 9.75759 9.49942 9.75759C9.49942 9.75759 9.49941 9.75759 9.49941 9.75759C9.49941 9.75759 9.49941 9.75759 9.49941 9.75759C9.4994 9.75759 9.4994 9.75759 9.4994 9.75759C9.4994 9.75759 9.4994 9.75759 9.49939 9.75759C9.49939 9.75759 9.49939 9.75759 9.49939 9.75759C9.49939 9.75759 9.49938 9.75759 9.49938 9.75759C9.49938 9.75759 9.49938 9.75759 9.49938 9.75759C9.49937 9.75759 9.49937 9.75759 9.49937 9.75759C9.49937 9.75759 9.49937 9.75759 9.49936 9.75759C9.49936 9.75759 9.49936 9.75759 9.49936 9.75759C9.49936 9.75759 9.49935 9.75759 9.49935 9.75759C9.49935 9.75759 9.49935 9.75759 9.49934 9.75759C9.49934 9.75759 9.49934 9.75759 9.49934 9.75759C9.49934 9.75759 9.49933 9.75759 9.49933 9.75759C9.49933 9.75759 9.49933 9.75759 9.49933 9.75759C9.49932 9.75759 9.49932 9.75759 9.49932 9.75759C9.49932 9.75759 9.49932 9.75759 9.49931 9.75759C9.49931 9.75759 9.49931 9.75759 9.49931 9.75759C9.49931 9.75759 9.4993 9.75759 9.4993 9.75759C9.4993 9.75759 9.4993 9.75759 9.49929 9.75759C9.49929 9.75759 9.49929 9.75759 9.49929 9.75759C9.49929 9.75759 9.49928 9.75759 9.49928 9.75759C9.49928 9.75759 9.49928 9.75759 9.49928 9.75759C9.49927 9.75759 9.49927 9.75759 9.49927 9.75759C9.49927 9.75759 9.49926 9.75759 9.49926 9.75759C9.49926 9.75759 9.49926 9.75759 9.49926 9.75759C9.49925 9.75759 9.49925 9.75759 9.49925 9.75759C9.49925 9.75759 9.49925 9.75759 9.49924 9.75759C9.49924 9.75759 9.49924 9.75759 9.49924 9.75759C9.49923 9.75759 9.49923 9.75759 9.49923 9.75759C9.49923 9.75759 9.49923 9.75759 9.49922 9.75759C9.49922 9.75759 9.49922 9.75759 9.49922 9.75759C9.49921 9.75759 9.49921 9.75759 9.49921 9.75759C9.49921 9.75759 9.49921 9.75759 9.4992 9.75759C9.4992 9.75759 9.4992 9.75759 9.4992 9.75759C9.4992 9.75759 9.49919 9.75759 9.49919 9.75759C9.49919 9.75759 9.49919 9.75759 9.49918 9.75759C9.49918 9.75759 9.49918 9.75759 9.49918 9.75759C9.49918 9.75759 9.49917 9.75759 9.49917 9.75759C9.49917 9.75759 9.49917 9.75759 9.49916 9.75759C9.49916 9.75759 9.49916 9.75759 9.49916 9.75759C9.49916 9.75759 9.49915 9.75759 9.49915 9.75759C9.49915 9.75759 9.49915 9.75759 9.49914 9.75759C9.49914 9.75759 9.49914 9.75759 9.49914 9.75759C9.49914 9.75759 9.49913 9.75759 9.49913 9.75759C9.49913 9.75759 9.49913 9.75759 9.49912 9.75759C9.49912 9.75759 9.49912 9.75759 9.49912 9.75759C9.49912 9.75759 9.49911 9.75759 9.49911 9.75759C9.49911 9.75759 9.49911 9.75759 9.4991 9.75759C9.4991 9.75759 9.4991 9.75759 9.4991 9.75759C9.4991 9.75759 9.49909 9.75759 9.49909 9.75759C9.49909 9.75759 9.49909 9.75759 9.49908 9.75759C9.49908 9.75759 9.49908 9.75759 9.49908 9.75759C9.49908 9.75759 9.49907 9.75759 9.49907 9.75759C9.49907 9.75759 9.49907 9.75759 9.49906 9.75759C9.49906 9.75759 9.49906 9.75759 9.49906 9.75759C9.49906 9.75759 9.49905 9.75759 9.49905 9.75759C9.49905 9.75759 9.49905 9.75759 9.49904 9.75759C9.49904 9.75759 9.49904 9.75759 9.49904 9.75759C9.49904 9.75759 9.49903 9.75759 9.49903 9.75759C9.49903 9.75759 9.49903 9.75759 9.49902 9.75759C9.49902 9.75759 9.49902 9.75759 9.49902 9.75759C9.49902 9.75759 9.49901 9.75759 9.49901 9.75759C9.49901 9.75759 9.49901 9.75759 9.499 9.75759C9.499 9.75759 9.499 9.75759 9.499 9.75759C9.499 9.75759 9.49899 9.75759 9.49899 9.75759C9.49899 9.75759 9.49899 9.75759 9.49898 9.75759C9.49898 9.75759 9.49898 9.75759 9.49898 9.75759C9.49898 9.75759 9.49897 9.75759 9.49897 9.75759C9.49897 9.75759 9.49897 9.75759 9.49896 9.75759C9.49896 9.75759 9.49896 9.75759 9.49896 9.75759C9.49896 9.75759 9.49895 9.75759 9.49895 9.75759C9.49895 9.75759 9.49895 9.75759 9.49894 9.75759C9.49894 9.75759 9.49894 9.75759 9.49894 9.75759C9.49894 9.75759 9.49893 9.75759 9.49893 9.75759C9.49893 9.75759 9.49893 9.75759 9.49892 9.75759C9.49892 9.75759 9.49892 9.75759 9.49892 9.75759C9.49892 9.75759 9.49891 9.75759 9.49891 9.75759C9.49891 9.75759 9.49891 9.75759 9.4989 9.75759C9.4989 9.75759 9.4989 9.75759 9.4989 9.75759C9.4989 9.75759 9.49889 9.75759 9.49889 9.75759C9.49889 9.75759 9.49889 9.75759 9.49889 9.75759C9.49888 9.75759 9.49888 9.75759 9.49888 9.75759C9.49888 9.75759 9.49887 9.75759 9.49887 9.75759C9.49887 9.75759 9.49887 9.75759 9.49887 9.75759C9.49886 9.75759 9.49886 9.75759 9.49886 9.75759C9.49886 9.75759 9.49885 9.75759 9.49885 9.75759C9.49885 9.75759 9.49885 9.75759 9.49885 9.75759C9.49884 9.75759 9.49884 9.75759 9.49884 9.75759C9.49884 9.75759 9.49884 9.75759 9.49883 9.75759C9.49883 9.75759 9.49883 9.75759 9.49883 9.75759C9.49882 9.75759 9.49882 9.75759 9.49882 9.75759C9.49882 9.75759 9.49882 9.75759 9.49881 9.75759C9.49881 9.75759 9.49881 9.75759 9.49881 9.75759C9.49881 9.75759 9.4988 9.75759 9.4988 9.75759C9.4988 9.75759 9.4988 9.75759 9.49879 9.75759C9.49879 9.75759 9.49879 9.75759 9.49879 9.75759C9.49879 9.75759 9.49878 9.75759 9.49878 9.75759C9.49878 9.75759 9.49878 9.75759 9.49878 9.75759C9.49877 9.75759 9.49877 9.75759 9.49877 9.75759C9.49877 9.75759 9.49877 9.75759 9.49876 9.75759C9.49876 9.75759 9.49876 9.75759 9.49876 9.75759C9.49875 9.75759 9.49875 9.75759 9.49875 9.75759C9.49875 9.75759 9.49875 9.75759 9.49874 9.75759C9.49874 9.75759 9.49874 9.75759 9.49874 9.75759C9.49874 9.75759 9.49873 9.75759 9.49873 9.75759C9.49873 9.75759 9.49873 9.75759 9.49873 9.75759C9.49872 9.75759 9.49872 9.75759 9.49872 9.75759C9.49872 9.75759 9.49872 9.75759 9.49871 9.75759C9.49871 9.75759 9.49871 9.75759 9.49871 9.75759C9.49871 9.75759 9.4987 9.75759 9.4987 9.75759C9.4987 9.75759 9.4987 9.75759 9.4987 9.75759C9.49869 9.75759 9.49869 9.75759 9.49869 9.75759C9.49869 9.75759 9.49869 9.75759 9.49868 9.75759C9.49868 9.75759 9.49868 9.75759 9.49868 9.75759C9.49868 9.75759 9.49867 9.75759 9.49867 9.75759C9.49867 9.75759 9.49867 9.75759 9.49867 9.75759C9.49866 9.75759 9.49866 9.75759 9.49866 9.75759C9.49866 9.75759 9.49866 9.75759 9.49865 9.75759C9.49865 9.75759 9.49865 9.75759 9.49865 9.75759C9.49865 9.75759 9.49864 9.75759 9.49864 9.75759C9.49864 9.75759 9.49864 9.75759 9.49864 9.75759C9.49864 9.75759 9.49863 9.75759 9.49863 9.75759C9.49863 9.75759 9.49863 9.75759 9.49863 9.75759C9.49862 9.75759 9.49862 9.75759 9.49862 9.75759C9.49862 9.75759 9.49862 9.75759 9.49861 9.75759C9.49861 9.75759 9.49861 9.75759 9.49861 9.75759C9.49861 9.75759 9.49861 9.75759 9.4986 9.75759C9.4986 9.75759 9.4986 9.75759 9.4986 9.75759C9.4986 9.75759 9.49859 9.75759 9.49859 9.75759C9.49859 9.75759 9.49859 9.75759 9.49859 9.75759C9.49859 9.75759 9.49858 9.75759 9.49858 9.75759C9.49858 9.75759 9.49858 9.75759 9.49858 9.75759C9.49857 9.75759 9.49857 9.75759 9.49857 9.75759C9.49857 9.75759 9.49857 9.75759 9.49857 9.75759C9.49856 9.75759 9.49856 9.75759 9.49856 9.75759C9.49856 9.75759 9.49856 9.75759 9.49855 9.75759C9.49855 9.75759 9.49855 9.75759 9.49855 9.75759C9.49855 9.75759 9.49855 9.75759 9.49854 9.75759C9.49854 9.75759 9.49854 9.75759 9.49854 9.75759C9.49854 9.75759 9.49854 9.75759 9.49853 9.75759C9.49853 9.75759 9.49853 9.75759 9.49853 9.75759C9.49853 9.75759 9.49853 9.75759 9.49852 9.75759C9.49852 9.75759 9.49852 9.75759 9.49852 9.75759C9.49852 9.75759 9.49852 9.75759 9.49851 9.75759C9.49851 9.75759 9.49851 9.75759 9.49851 9.75759C9.49851 9.75759 9.49851 9.75759 9.4985 9.75759C9.4985 9.75759 9.4985 9.75759 9.4985 9.75759C9.4985 9.75759 9.4985 9.75759 9.49849 9.75759C9.49849 9.75759 9.49849 9.75759 9.49849 9.75759C9.49849 9.75759 9.49849 9.75759 9.49849 9.75759C9.49848 9.75759 9.49848 9.75759 9.49848 9.75759C9.49848 9.75759 9.49848 9.75759 9.49848 9.75759C9.49847 9.75759 9.49847 9.75759 9.49847 9.75759C9.49847 9.75759 9.49847 9.75759 9.49847 9.75759C9.49847 9.75759 9.49846 9.75759 9.49846 9.75759C9.49846 9.75759 9.49846 9.75759 9.49846 9.75759C9.49846 9.75759 9.49846 9.75759 9.49845 9.75759C9.49845 9.75759 9.49845 9.75759 9.49845 9.75759C9.49845 9.75759 9.49845 9.75759 9.49845 9.75759C9.49844 9.75759 9.49844 9.75759 9.49844 9.75759C9.49844 9.75759 9.49844 9.75759 9.49844 9.75759C9.49844 9.75759 9.49843 9.75759 9.49843 9.75759C9.49843 9.75759 9.49843 9.75759 9.49843 9.75759C9.49843 9.75759 9.49843 9.75759 9.49842 9.75759C9.49842 9.75759 9.49842 9.75759 9.49842 9.75759C9.49842 9.75759 9.49842 9.75759 9.49842 9.75759C9.49841 9.75759 9.49841 9.75759 9.49841 9.75759C9.49841 9.75759 9.49841 9.75759 9.49841 9.75759C9.49841 9.75759 9.49841 9.75759 9.4984 9.75759C9.4984 9.75759 9.4984 9.75759 9.4984 9.75759C9.4984 9.75759 9.4984 9.75759 9.4984 9.75759C9.4984 9.75759 9.49839 9.75759 9.49839 9.75759C9.49839 9.75759 9.49839 9.75759 9.49839 9.75759C9.49839 9.75759 9.49839 9.75759 9.49839 9.75759C9.49839 9.75759 9.49838 9.75759 9.49838 9.75759C9.49838 9.75759 9.49838 9.75759 9.49838 9.75759C9.49838 9.75759 9.49838 9.75759 9.49838 9.75759C9.49838 9.75759 9.49837 9.75759 9.49837 9.75759C9.49837 9.75759 9.49837 9.75759 9.49837 9.75759C9.49837 9.75759 9.49837 9.75759 9.49837 9.75759C9.49837 9.75759 9.49836 9.75759 9.49836 9.75759C9.49836 9.75759 9.49836 9.75759 9.49836 9.75759C9.49836 9.75759 9.49836 9.75759 9.49836 9.75759C9.49836 9.75759 9.49836 9.75759 9.49835 9.75759C9.49835 9.75759 9.49835 9.75759 9.49835 9.75759C9.49835 9.75759 9.49835 9.75759 9.49835 9.75759C9.49835 9.75759 9.49835 9.75759 9.49835 9.75759C9.49834 9.75759 9.49834 9.75759 9.49834 9.75759C9.49834 9.75759 9.49834 9.75759 9.49834 9.75759C9.49834 9.75759 9.49834 9.75759 9.49834 9.75759C9.49834 9.75759 9.49834 9.75759 9.49834 9.75759C9.49833 9.75759 9.49833 9.75759 9.49833 9.75759C9.49833 9.75759 9.49833 9.75759 9.49833 9.75759C9.49833 9.75759 9.49833 9.75759 9.49833 9.75759C9.49833 9.75759 9.49833 9.75759 9.49833 9.75759C9.49832 9.75759 9.49832 9.75759 9.49832 9.75759C9.49832 9.75759 9.49832 9.75759 9.49832 9.75759C9.49832 9.75759 9.49832 9.75759 9.49832 9.75759C9.49832 9.75759 9.49832 9.75759 9.49832 9.75759C9.49832 9.75759 9.49832 9.75759 9.49831 9.75759C9.49831 9.75759 9.49831 9.75759 9.49831 9.75759C9.49831 9.75759 9.49831 9.75759 9.49831 9.75759C9.49831 9.75759 9.49831 9.75759 9.49831 9.75759C9.49831 9.75759 9.49831 9.75759 9.49831 9.75759C9.49831 9.75759 9.49831 9.75759 9.49831 9.75759C9.49831 9.75759 9.49831 9.75759 9.4983 9.75759C9.4983 9.75759 9.4983 9.75759 9.4983 9.75759C9.4983 9.75759 9.4983 9.75759 9.4983 9.75759C9.4983 9.75759 9.4983 9.75759 9.4983 9.75759C9.4983 9.75759 9.4983 9.75759 9.4983 9.75759C9.4983 9.75759 9.4983 9.75759 9.4983 9.75759C9.4983 9.75759 9.4983 9.75759 9.4983 9.75759C9.4983 9.75759 9.4983 9.75759 9.4983 9.75759C9.4983 9.75759 9.49829 9.75759 9.49829 9.75759C9.49829 9.75759 9.49829 9.75759 9.49829 9.75759C9.49829 9.75759 9.49829 9.75759 9.49829 9.75759H9.49829C9.49829 9.75759 9.49829 9.75759 9.49829 9.75759H9.49829C9.49829 9.75759 9.49829 9.75759 9.49829 9.75759C9.49829 9.75759 9.49829 9.75759 9.49829 9.75759C9.49829 9.75759 9.49829 9.75759 9.49829 9.75759C9.49829 9.75759 9.49829 9.75759 9.49829 9.75759C9.49829 9.75759 9.49829 9.75759 9.49829 9.75759C9.49829 9.75759 9.49829 9.75759 9.49829 10.7576Z" fill="currentColor" mask="url(#path-1-inside-1_1045_5517)"/>
</svg>
