<svg width="24" height="25" viewBox="0 0 24 25" fill="none" xmlns="http://www.w3.org/2000/svg">
<mask id="path-1-inside-1_1399_6164" fill="white">
<path d="M20 10.1862C20 7.59664 17.8541 5.5 15.2038 5.5C13.7099 5.5 12.3789 6.16728 11.4981 7.20992C10.6211 6.16728 9.28624 5.5 7.79616 5.5C5.14586 5.5 3 7.59664 3 10.1862C3 11.6307 3.66743 12.9197 4.71901 13.7804L11.4981 20.2333L18.2771 13.7766C19.3287 12.9197 20 11.6269 20 10.1862ZM11.4981 13.1586C11.4981 13.1586 11.5019 13.1586 11.4981 13.1586V13.1586Z"/>
</mask>
<path d="M11.4981 7.20992L10.7328 7.85361L11.4964 8.76145L12.2619 7.85527L11.4981 7.20992ZM4.71901 13.7804L5.40848 13.0561L5.38135 13.0303L5.35236 13.0065L4.71901 13.7804ZM11.4981 20.2333L10.8086 20.9576L11.4983 21.6141L12.1877 20.9574L11.4981 20.2333ZM18.2771 13.7766L17.6454 13.0014L17.6154 13.0258L17.5874 13.0525L18.2771 13.7766ZM21 10.1862C21 7.0226 18.3844 4.5 15.2038 4.5V6.5C17.3239 6.5 19 8.17067 19 10.1862H21ZM15.2038 4.5C13.4062 4.5 11.799 5.30417 10.7342 6.56456L12.2619 7.85527C12.9588 7.0304 14.0135 6.5 15.2038 6.5V4.5ZM12.2633 6.56623C11.2014 5.30362 9.58907 4.5 7.79616 4.5V6.5C8.9834 6.5 10.0408 7.03095 10.7328 7.85361L12.2633 6.56623ZM7.79616 4.5C4.61557 4.5 2 7.0226 2 10.1862H4C4 8.17067 5.67614 6.5 7.79616 6.5V4.5ZM2 10.1862C2 11.9482 2.816 13.5151 4.08566 14.5543L5.35236 13.0065C4.51885 12.3244 4 11.3132 4 10.1862H2ZM4.02954 14.5047L10.8086 20.9576L12.1875 19.509L5.40848 13.0561L4.02954 14.5047ZM12.1877 20.9574L18.9668 14.5007L17.5874 13.0525L10.8084 19.5092L12.1877 20.9574ZM18.9088 14.5518C20.1792 13.5167 21 11.9454 21 10.1862H19C19 11.3083 18.4782 12.3228 17.6454 13.0014L18.9088 14.5518ZM11.4981 13.1586C11.4981 14.1586 11.4981 14.1586 11.4981 14.1586H11.4981C11.4981 14.1586 11.4981 14.1586 11.4981 14.1586C11.4981 14.1586 11.4981 14.1586 11.4981 14.1586C11.4981 14.1586 11.4981 14.1586 11.4981 14.1586H11.4981H11.4981H11.4981H11.4981H11.4981C11.4981 14.1586 11.4981 14.1586 11.4981 14.1586C11.4981 14.1586 11.4981 14.1586 11.4981 14.1586H11.4981C11.4981 14.1586 11.4981 14.1586 11.4981 14.1586C11.4981 14.1586 11.4981 14.1586 11.4981 14.1586H11.4981C11.4981 14.1586 11.4981 14.1586 11.4981 14.1586C11.4981 14.1586 11.4981 14.1586 11.4981 14.1586C11.4981 14.1586 11.4981 14.1586 11.4981 14.1586C11.4981 14.1586 11.4981 14.1586 11.4981 14.1586C11.4981 14.1586 11.4981 14.1586 11.4981 14.1586C11.4981 14.1586 11.4981 14.1586 11.4981 14.1586C11.4981 14.1586 11.4981 14.1586 11.4981 14.1586C11.4981 14.1586 11.4981 14.1586 11.4981 14.1586C11.4981 14.1586 11.4981 14.1586 11.4981 14.1586C11.4981 14.1586 11.4981 14.1586 11.4981 14.1586C11.4981 14.1586 11.4981 14.1586 11.4981 14.1586C11.4981 14.1586 11.4981 14.1586 11.4981 14.1586C11.4981 14.1586 11.4981 14.1586 11.4981 14.1586C11.4981 14.1586 11.4981 14.1586 11.4981 14.1586C11.4981 14.1586 11.4981 14.1586 11.4981 14.1586C11.4981 14.1586 11.4981 14.1586 11.4981 14.1586C11.4981 14.1586 11.4981 14.1586 11.4981 14.1586C11.4981 14.1586 11.4981 14.1586 11.4981 14.1586C11.4981 14.1586 11.4981 14.1586 11.4981 14.1586C11.4981 14.1586 11.4981 14.1586 11.4981 14.1586C11.4981 14.1586 11.4981 14.1586 11.4981 14.1586C11.4981 14.1586 11.4981 14.1586 11.4981 14.1586C11.4981 14.1586 11.4981 14.1586 11.4981 14.1586C11.4981 14.1586 11.4981 14.1586 11.4981 14.1586C11.4981 14.1586 11.4981 14.1586 11.4981 14.1586C11.4981 14.1586 11.4981 14.1586 11.4981 14.1586C11.4981 14.1586 11.4981 14.1586 11.4981 14.1586C11.4981 14.1586 11.4982 14.1586 11.4982 14.1586C11.4982 14.1586 11.4982 14.1586 11.4982 14.1586C11.4982 14.1586 11.4982 14.1586 11.4982 14.1586C11.4982 14.1586 11.4982 14.1586 11.4982 14.1586C11.4982 14.1586 11.4982 14.1586 11.4982 14.1586C11.4982 14.1586 11.4982 14.1586 11.4982 14.1586C11.4982 14.1586 11.4982 14.1586 11.4982 14.1586C11.4982 14.1586 11.4982 14.1586 11.4982 14.1586C11.4982 14.1586 11.4982 14.1586 11.4982 14.1586C11.4982 14.1586 11.4982 14.1586 11.4982 14.1586C11.4982 14.1586 11.4982 14.1586 11.4982 14.1586C11.4982 14.1586 11.4982 14.1586 11.4982 14.1586C11.4982 14.1586 11.4982 14.1586 11.4982 14.1586C11.4982 14.1586 11.4982 14.1586 11.4982 14.1586C11.4982 14.1586 11.4982 14.1586 11.4982 14.1586C11.4982 14.1586 11.4982 14.1586 11.4982 14.1586C11.4982 14.1586 11.4982 14.1586 11.4982 14.1586C11.4982 14.1586 11.4982 14.1586 11.4982 14.1586C11.4982 14.1586 11.4982 14.1586 11.4982 14.1586C11.4982 14.1586 11.4982 14.1586 11.4982 14.1586C11.4982 14.1586 11.4982 14.1586 11.4982 14.1586C11.4982 14.1586 11.4982 14.1586 11.4982 14.1586C11.4982 14.1586 11.4982 14.1586 11.4982 14.1586C11.4982 14.1586 11.4983 14.1586 11.4983 14.1586C11.4983 14.1586 11.4983 14.1586 11.4983 14.1586C11.4983 14.1586 11.4983 14.1586 11.4983 14.1586C11.4983 14.1586 11.4983 14.1586 11.4983 14.1586C11.4983 14.1586 11.4983 14.1586 11.4983 14.1586C11.4983 14.1586 11.4983 14.1586 11.4983 14.1586C11.4983 14.1586 11.4983 14.1586 11.4983 14.1586C11.4983 14.1586 11.4983 14.1586 11.4983 14.1586C11.4983 14.1586 11.4983 14.1586 11.4983 14.1586C11.4983 14.1586 11.4983 14.1586 11.4983 14.1586C11.4983 14.1586 11.4983 14.1586 11.4983 14.1586C11.4983 14.1586 11.4983 14.1586 11.4983 14.1586C11.4983 14.1586 11.4983 14.1586 11.4983 14.1586C11.4983 14.1586 11.4983 14.1586 11.4983 14.1586C11.4983 14.1586 11.4983 14.1586 11.4983 14.1586C11.4983 14.1586 11.4983 14.1586 11.4983 14.1586C11.4983 14.1586 11.4983 14.1586 11.4983 14.1586C11.4983 14.1586 11.4983 14.1586 11.4983 14.1586C11.4983 14.1586 11.4983 14.1586 11.4984 14.1586C11.4984 14.1586 11.4984 14.1586 11.4984 14.1586C11.4984 14.1586 11.4984 14.1586 11.4984 14.1586C11.4984 14.1586 11.4984 14.1586 11.4984 14.1586C11.4984 14.1586 11.4984 14.1586 11.4984 14.1586C11.4984 14.1586 11.4984 14.1586 11.4984 14.1586C11.4984 14.1586 11.4984 14.1586 11.4984 14.1586C11.4984 14.1586 11.4984 14.1586 11.4984 14.1586C11.4984 14.1586 11.4984 14.1586 11.4984 14.1586C11.4984 14.1586 11.4984 14.1586 11.4984 14.1586C11.4984 14.1586 11.4984 14.1586 11.4984 14.1586C11.4984 14.1586 11.4984 14.1586 11.4984 14.1586C11.4984 14.1586 11.4984 14.1586 11.4984 14.1586C11.4984 14.1586 11.4984 14.1586 11.4984 14.1586C11.4984 14.1586 11.4984 14.1586 11.4984 14.1586C11.4984 14.1586 11.4984 14.1586 11.4984 14.1586C11.4984 14.1586 11.4984 14.1586 11.4984 14.1586C11.4985 14.1586 11.4985 14.1586 11.4985 14.1586C11.4985 14.1586 11.4985 14.1586 11.4985 14.1586C11.4985 14.1586 11.4985 14.1586 11.4985 14.1586C11.4985 14.1586 11.4985 14.1586 11.4985 14.1586C11.4985 14.1586 11.4985 14.1586 11.4985 14.1586C11.4985 14.1586 11.4985 14.1586 11.4985 14.1586C11.4985 14.1586 11.4985 14.1586 11.4985 14.1586C11.4985 14.1586 11.4985 14.1586 11.4985 14.1586C11.4985 14.1586 11.4985 14.1586 11.4985 14.1586C11.4985 14.1586 11.4985 14.1586 11.4985 14.1586C11.4985 14.1586 11.4985 14.1586 11.4985 14.1586C11.4985 14.1586 11.4985 14.1586 11.4985 14.1586C11.4985 14.1586 11.4985 14.1586 11.4985 14.1586C11.4985 14.1586 11.4985 14.1586 11.4985 14.1586C11.4985 14.1586 11.4985 14.1586 11.4985 14.1586C11.4986 14.1586 11.4986 14.1586 11.4986 14.1586C11.4986 14.1586 11.4986 14.1586 11.4986 14.1586C11.4986 14.1586 11.4986 14.1586 11.4986 14.1586C11.4986 14.1586 11.4986 14.1586 11.4986 14.1586C11.4986 14.1586 11.4986 14.1586 11.4986 14.1586C11.4986 14.1586 11.4986 14.1586 11.4986 14.1586C11.4986 14.1586 11.4986 14.1586 11.4986 14.1586C11.4986 14.1586 11.4986 14.1586 11.4986 14.1586C11.4986 14.1586 11.4986 14.1586 11.4986 14.1586C11.4986 14.1586 11.4986 14.1586 11.4986 14.1586C11.4986 14.1586 11.4986 14.1586 11.4986 14.1586C11.4986 14.1586 11.4986 14.1586 11.4986 14.1586C11.4986 14.1586 11.4986 14.1586 11.4986 14.1586C11.4986 14.1586 11.4986 14.1586 11.4986 14.1586C11.4987 14.1586 11.4987 14.1586 11.4987 14.1586C11.4987 14.1586 11.4987 14.1586 11.4987 14.1586C11.4987 14.1586 11.4987 14.1586 11.4987 14.1586C11.4987 14.1586 11.4987 14.1586 11.4987 14.1586C11.4987 14.1586 11.4987 14.1586 11.4987 14.1586C11.4987 14.1586 11.4987 14.1586 11.4987 14.1586C11.4987 14.1586 11.4987 14.1586 11.4987 14.1586C11.4987 14.1586 11.4987 14.1586 11.4987 14.1586C11.4987 14.1586 11.4987 14.1586 11.4987 14.1586C11.4987 14.1586 11.4987 14.1586 11.4987 14.1586C11.4987 14.1586 11.4987 14.1586 11.4987 14.1586C11.4987 14.1586 11.4987 14.1586 11.4987 14.1586C11.4987 14.1586 11.4987 14.1586 11.4987 14.1586C11.4987 14.1586 11.4987 14.1586 11.4988 14.1586C11.4988 14.1586 11.4988 14.1586 11.4988 14.1586C11.4988 14.1586 11.4988 14.1586 11.4988 14.1586C11.4988 14.1586 11.4988 14.1586 11.4988 14.1586C11.4988 14.1586 11.4988 14.1586 11.4988 14.1586C11.4988 14.1586 11.4988 14.1586 11.4988 14.1586C11.4988 14.1586 11.4988 14.1586 11.4988 14.1586C11.4988 14.1586 11.4988 14.1586 11.4988 14.1586C11.4988 14.1586 11.4988 14.1586 11.4988 14.1586C11.4988 14.1586 11.4988 14.1586 11.4988 14.1586C11.4988 14.1586 11.4988 14.1586 11.4988 14.1586C11.4988 14.1586 11.4988 14.1586 11.4988 14.1586C11.4988 14.1586 11.4988 14.1586 11.4988 14.1586C11.4988 14.1586 11.4988 14.1586 11.4988 14.1586C11.4989 14.1586 11.4989 14.1586 11.4989 14.1586C11.4989 14.1586 11.4989 14.1586 11.4989 14.1586C11.4989 14.1586 11.4989 14.1586 11.4989 14.1586C11.4989 14.1586 11.4989 14.1586 11.4989 14.1586C11.4989 14.1586 11.4989 14.1586 11.4989 14.1586C11.4989 14.1586 11.4989 14.1586 11.4989 14.1586C11.4989 14.1586 11.4989 14.1586 11.4989 14.1586C11.4989 14.1586 11.4989 14.1586 11.4989 14.1586C11.4989 14.1586 11.4989 14.1586 11.4989 14.1586C11.4989 14.1586 11.4989 14.1586 11.4989 14.1586C11.4989 14.1586 11.4989 14.1586 11.4989 14.1586C11.4989 14.1586 11.4989 14.1586 11.4989 14.1586C11.4989 14.1586 11.4989 14.1586 11.4989 14.1586C11.499 14.1586 11.499 14.1586 11.499 14.1586C11.499 14.1586 11.499 14.1586 11.499 14.1586C11.499 14.1586 11.499 14.1586 11.499 14.1586C11.499 14.1586 11.499 14.1586 11.499 14.1586C11.499 14.1586 11.499 14.1586 11.499 14.1586C11.499 14.1586 11.499 14.1586 11.499 14.1586C11.499 14.1586 11.499 14.1586 11.499 14.1586C11.499 14.1586 11.499 14.1586 11.499 14.1586C11.499 14.1586 11.499 14.1586 11.499 14.1586C11.499 14.1586 11.499 14.1586 11.499 14.1586C11.499 14.1586 11.499 14.1586 11.499 14.1586C11.499 14.1586 11.499 14.1586 11.499 14.1586C11.499 14.1586 11.499 14.1586 11.499 14.1586C11.499 14.1586 11.4991 14.1586 11.4991 14.1586C11.4991 14.1586 11.4991 14.1586 11.4991 14.1586C11.4991 14.1586 11.4991 14.1586 11.4991 14.1586C11.4991 14.1586 11.4991 14.1586 11.4991 14.1586C11.4991 14.1586 11.4991 14.1586 11.4991 14.1586C11.4991 14.1586 11.4991 14.1586 11.4991 14.1586C11.4991 14.1586 11.4991 14.1586 11.4991 14.1586C11.4991 14.1586 11.4991 14.1586 11.4991 14.1586C11.4991 14.1586 11.4991 14.1586 11.4991 14.1586C11.4991 14.1586 11.4991 14.1586 11.4991 14.1586C11.4991 14.1586 11.4991 14.1586 11.4991 14.1586C11.4991 14.1586 11.4991 14.1586 11.4991 14.1586C11.4991 14.1586 11.4991 14.1586 11.4991 14.1586C11.4991 14.1586 11.4991 14.1586 11.4991 14.1586C11.4992 14.1586 11.4992 14.1586 11.4992 14.1586C11.4992 14.1586 11.4992 14.1586 11.4992 14.1586C11.4992 14.1586 11.4992 14.1586 11.4992 14.1586C11.4992 14.1586 11.4992 14.1586 11.4992 14.1586C11.4992 14.1586 11.4992 14.1586 11.4992 14.1586C11.4992 14.1586 11.4992 14.1586 11.4992 14.1586C11.4992 14.1586 11.4992 14.1586 11.4992 14.1586C11.4992 14.1586 11.4992 14.1586 11.4992 14.1586C11.4992 14.1586 11.4992 14.1586 11.4992 14.1586C11.4992 14.1586 11.4992 14.1586 11.4992 14.1586C11.4992 14.1586 11.4992 14.1586 11.4992 14.1586C11.4992 14.1586 11.4992 14.1586 11.4992 14.1586C11.4992 14.1586 11.4992 14.1586 11.4992 14.1586C11.4992 14.1586 11.4992 14.1586 11.4993 14.1586C11.4993 14.1586 11.4993 14.1586 11.4993 14.1586C11.4993 14.1586 11.4993 14.1586 11.4993 14.1586C11.4993 14.1586 11.4993 14.1586 11.4993 14.1586C11.4993 14.1586 11.4993 14.1586 11.4993 14.1586C11.4993 14.1586 11.4993 14.1586 11.4993 14.1586C11.4993 14.1586 11.4993 14.1586 11.4993 14.1586C11.4993 14.1586 11.4993 14.1586 11.4993 14.1586C11.4993 14.1586 11.4993 14.1586 11.4993 14.1586C11.4993 14.1586 11.4993 14.1586 11.4993 14.1586C11.4993 14.1586 11.4993 14.1586 11.4993 14.1586C11.4993 14.1586 11.4993 14.1586 11.4993 14.1586C11.4993 14.1586 11.4993 14.1586 11.4993 14.1586C11.4993 14.1586 11.4993 14.1586 11.4993 14.1586C11.4993 14.1586 11.4993 14.1586 11.4993 14.1586C11.4993 14.1586 11.4994 14.1586 11.4994 14.1586C11.4994 14.1586 11.4994 14.1586 11.4994 14.1586C11.4994 14.1586 11.4994 14.1586 11.4994 14.1586C11.4994 14.1586 11.4994 14.1586 11.4994 14.1586C11.4994 14.1586 11.4994 14.1586 11.4994 14.1586C11.4994 14.1586 11.4994 14.1586 11.4994 14.1586C11.4994 14.1586 11.4994 14.1586 11.4994 14.1586C11.4994 14.1586 11.4994 14.1586 11.4994 14.1586C11.4994 14.1586 11.4994 14.1586 11.4994 14.1586C11.4994 14.1586 11.4994 14.1586 11.4994 14.1586C11.4994 14.1586 11.4994 14.1586 11.4994 14.1586C11.4994 14.1586 11.4994 14.1586 11.4994 14.1586C11.4994 14.1586 11.4994 14.1586 11.4994 14.1586C11.4994 14.1586 11.4994 14.1586 11.4994 14.1586C11.4994 14.1586 11.4994 14.1586 11.4994 14.1586C11.4994 14.1586 11.4994 14.1586 11.4994 14.1586C11.4995 14.1586 11.4995 14.1586 11.4995 14.1586C11.4995 14.1586 11.4995 14.1586 11.4995 14.1586C11.4995 14.1586 11.4995 14.1586 11.4995 14.1586C11.4995 14.1586 11.4995 14.1586 11.4995 14.1586C11.4995 14.1586 11.4995 14.1586 11.4995 14.1586C11.4995 14.1586 11.4995 14.1586 11.4995 14.1586C11.4995 14.1586 11.4995 14.1586 11.4995 14.1586C11.4995 14.1586 11.4995 14.1586 11.4995 14.1586C11.4995 14.1586 11.4995 14.1586 11.4995 14.1586C11.4995 14.1586 11.4995 14.1586 11.4995 14.1586C11.4995 14.1586 11.4995 14.1586 11.4995 14.1586C11.4995 14.1586 11.4995 14.1586 11.4995 14.1586C11.4995 14.1586 11.4995 14.1586 11.4995 14.1586C11.4995 14.1586 11.4995 14.1586 11.4995 14.1586C11.4995 14.1586 11.4995 14.1586 11.4995 14.1586C11.4995 14.1586 11.4995 14.1586 11.4995 14.1586C11.4995 14.1586 11.4995 14.1586 11.4995 14.1586C11.4995 14.1586 11.4996 14.1586 11.4996 14.1586C11.4996 14.1586 11.4996 14.1586 11.4996 14.1586C11.4996 14.1586 11.4996 14.1586 11.4996 14.1586C11.4996 14.1586 11.4996 14.1586 11.4996 14.1586C11.4996 14.1586 11.4996 14.1586 11.4996 14.1586C11.4996 14.1586 11.4996 14.1586 11.4996 14.1586C11.4996 14.1586 11.4996 14.1586 11.4996 14.1586C11.4996 14.1586 11.4996 14.1586 11.4996 14.1586C11.4996 14.1586 11.4996 14.1586 11.4996 14.1586C11.4996 14.1586 11.4996 14.1586 11.4996 14.1586C11.4996 14.1586 11.4996 14.1586 11.4996 14.1586C11.4996 14.1586 11.4996 14.1586 11.4996 14.1586C11.4996 14.1586 11.4996 14.1586 11.4996 14.1586C11.4996 14.1586 11.4996 14.1586 11.4996 14.1586C11.4996 14.1586 11.4996 14.1586 11.4996 14.1586C11.4996 14.1586 11.4996 14.1586 11.4996 14.1586C11.4996 14.1586 11.4996 14.1586 11.4996 14.1586C11.4996 14.1586 11.4996 14.1586 11.4996 14.1586C11.4996 14.1586 11.4996 14.1586 11.4996 14.1586C11.4996 14.1586 11.4996 14.1586 11.4996 14.1586C11.4996 14.1586 11.4996 14.1586 11.4997 14.1586C11.4997 14.1586 11.4997 14.1586 11.4997 14.1586C11.4997 14.1586 11.4997 14.1586 11.4997 14.1586C11.4997 14.1586 11.4997 14.1586 11.4997 14.1586C11.4997 14.1586 11.4997 14.1586 11.4997 14.1586C11.4997 14.1586 11.4997 14.1586 11.4997 14.1586C11.4997 14.1586 11.4997 14.1586 11.4997 14.1586C11.4997 14.1586 11.4997 14.1586 11.4997 14.1586C11.4997 14.1586 11.4997 14.1586 11.4997 14.1586C11.4997 14.1586 11.4997 14.1586 11.4997 14.1586C11.4997 14.1586 11.4997 14.1586 11.4997 14.1586C11.4997 14.1586 11.4997 14.1586 11.4997 14.1586C11.4997 14.1586 11.4997 14.1586 11.4997 14.1586C11.4997 14.1586 11.4997 14.1586 11.4997 14.1586C11.4997 14.1586 11.4997 14.1586 11.4997 14.1586C11.4997 14.1586 11.4997 14.1586 11.4997 14.1586C11.4997 14.1586 11.4997 14.1586 11.4997 14.1586C11.4997 14.1586 11.4997 14.1586 11.4997 14.1586C11.4997 14.1586 11.4997 14.1586 11.4997 14.1586C11.4997 14.1586 11.4997 14.1586 11.4997 14.1586C11.4997 14.1586 11.4997 14.1586 11.4997 14.1586C11.4997 14.1586 11.4997 14.1586 11.4997 14.1586C11.4997 14.1586 11.4997 14.1586 11.4997 14.1586C11.4997 14.1586 11.4997 14.1586 11.4997 14.1586C11.4997 14.1586 11.4997 14.1586 11.4997 14.1586C11.4997 14.1586 11.4997 14.1586 11.4997 14.1586C11.4997 14.1586 11.4997 14.1586 11.4997 14.1586C11.4997 14.1586 11.4997 14.1586 11.4997 14.1586C11.4997 14.1586 11.4997 14.1586 11.4997 14.1586C11.4997 14.1586 11.4997 14.1586 11.4997 14.1586C11.4997 14.1586 11.4998 14.1586 11.4998 14.1586C11.4998 14.1586 11.4998 14.1586 11.4998 14.1586C11.4998 14.1586 11.4998 14.1586 11.4998 14.1586C11.4998 14.1586 11.4998 14.1586 11.4998 14.1586C11.4998 14.1586 11.4998 14.1586 11.4998 14.1586C11.4998 14.1586 11.4998 14.1586 11.4998 14.1586C11.4998 14.1586 11.4998 14.1586 11.4998 14.1586C11.4998 14.1586 11.4998 14.1586 11.4998 14.1586H11.4998C11.4998 14.1586 11.4998 14.1586 11.4998 14.1586C11.4998 14.1586 11.4998 14.1586 11.4998 14.1586H11.4998C11.4998 14.1586 11.4998 14.1586 11.4998 14.1586H11.4998C11.4998 14.1586 11.4998 14.1586 11.4998 14.1586C11.4998 14.1586 11.4998 14.1586 11.4998 14.1586H11.4998H11.4998H11.4998H11.4998C11.4998 14.1586 11.4998 14.1586 11.4998 14.1586C11.4998 14.1586 11.4998 14.1586 11.4998 14.1586C11.4998 14.1586 11.4998 14.1586 11.4998 14.1586C11.4998 14.1586 11.4998 14.1586 11.4998 14.1586C11.4998 13.1586 11.4998 12.1586 11.4998 12.1586C11.4998 12.1586 11.4998 12.1586 11.4998 12.1586H11.4998H11.4998C11.4998 12.1586 11.4998 12.1586 11.4998 12.1586C11.4998 12.1586 11.4998 12.1586 11.4998 12.1586C11.4998 12.1586 11.4998 12.1586 11.4998 12.1586C11.4998 12.1586 11.4998 12.1586 11.4998 12.1586C11.4998 12.1586 11.4998 12.1586 11.4998 12.1586H11.4998C11.4998 12.1586 11.4998 12.1586 11.4998 12.1586C11.4998 12.1586 11.4998 12.1586 11.4998 12.1586C11.4998 12.1586 11.4998 12.1586 11.4998 12.1586H11.4998C11.4998 12.1586 11.4998 12.1586 11.4998 12.1586C11.4998 12.1586 11.4998 12.1586 11.4998 12.1586C11.4998 12.1586 11.4998 12.1586 11.4998 12.1586C11.4998 12.1586 11.4998 12.1586 11.4998 12.1586C11.4998 12.1586 11.4998 12.1586 11.4998 12.1586C11.4998 12.1586 11.4998 12.1586 11.4998 12.1586C11.4998 12.1586 11.4998 12.1586 11.4998 12.1586C11.4998 12.1586 11.4998 12.1586 11.4998 12.1586C11.4998 12.1586 11.4998 12.1586 11.4998 12.1586C11.4998 12.1586 11.4997 12.1586 11.4997 12.1586C11.4997 12.1586 11.4997 12.1586 11.4997 12.1586C11.4997 12.1586 11.4997 12.1586 11.4997 12.1586C11.4997 12.1586 11.4997 12.1586 11.4997 12.1586C11.4997 12.1586 11.4997 12.1586 11.4997 12.1586C11.4997 12.1586 11.4997 12.1586 11.4997 12.1586C11.4997 12.1586 11.4997 12.1586 11.4997 12.1586C11.4997 12.1586 11.4997 12.1586 11.4997 12.1586C11.4997 12.1586 11.4997 12.1586 11.4997 12.1586C11.4997 12.1586 11.4997 12.1586 11.4997 12.1586C11.4997 12.1586 11.4997 12.1586 11.4997 12.1586C11.4997 12.1586 11.4997 12.1586 11.4997 12.1586C11.4997 12.1586 11.4997 12.1586 11.4997 12.1586C11.4997 12.1586 11.4997 12.1586 11.4997 12.1586C11.4997 12.1586 11.4997 12.1586 11.4997 12.1586C11.4997 12.1586 11.4997 12.1586 11.4997 12.1586C11.4997 12.1586 11.4997 12.1586 11.4997 12.1586C11.4997 12.1586 11.4997 12.1586 11.4997 12.1586C11.4997 12.1586 11.4997 12.1586 11.4997 12.1586C11.4997 12.1586 11.4997 12.1586 11.4997 12.1586C11.4997 12.1586 11.4997 12.1586 11.4997 12.1586C11.4997 12.1586 11.4997 12.1586 11.4997 12.1586C11.4997 12.1586 11.4997 12.1586 11.4997 12.1586C11.4997 12.1586 11.4997 12.1586 11.4997 12.1586C11.4997 12.1586 11.4997 12.1586 11.4997 12.1586C11.4997 12.1586 11.4997 12.1586 11.4996 12.1586C11.4996 12.1586 11.4996 12.1586 11.4996 12.1586C11.4996 12.1586 11.4996 12.1586 11.4996 12.1586C11.4996 12.1586 11.4996 12.1586 11.4996 12.1586C11.4996 12.1586 11.4996 12.1586 11.4996 12.1586C11.4996 12.1586 11.4996 12.1586 11.4996 12.1586C11.4996 12.1586 11.4996 12.1586 11.4996 12.1586C11.4996 12.1586 11.4996 12.1586 11.4996 12.1586C11.4996 12.1586 11.4996 12.1586 11.4996 12.1586C11.4996 12.1586 11.4996 12.1586 11.4996 12.1586C11.4996 12.1586 11.4996 12.1586 11.4996 12.1586C11.4996 12.1586 11.4996 12.1586 11.4996 12.1586C11.4996 12.1586 11.4996 12.1586 11.4996 12.1586C11.4996 12.1586 11.4996 12.1586 11.4996 12.1586C11.4996 12.1586 11.4996 12.1586 11.4996 12.1586C11.4996 12.1586 11.4996 12.1586 11.4996 12.1586C11.4996 12.1586 11.4995 12.1586 11.4995 12.1586C11.4995 12.1586 11.4995 12.1586 11.4995 12.1586C11.4995 12.1586 11.4995 12.1586 11.4995 12.1586C11.4995 12.1586 11.4995 12.1586 11.4995 12.1586C11.4995 12.1586 11.4995 12.1586 11.4995 12.1586C11.4995 12.1586 11.4995 12.1586 11.4995 12.1586C11.4995 12.1586 11.4995 12.1586 11.4995 12.1586C11.4995 12.1586 11.4995 12.1586 11.4995 12.1586C11.4995 12.1586 11.4995 12.1586 11.4995 12.1586C11.4995 12.1586 11.4995 12.1586 11.4995 12.1586C11.4995 12.1586 11.4995 12.1586 11.4995 12.1586C11.4995 12.1586 11.4995 12.1586 11.4995 12.1586C11.4995 12.1586 11.4995 12.1586 11.4994 12.1586C11.4994 12.1586 11.4994 12.1586 11.4994 12.1586C11.4994 12.1586 11.4994 12.1586 11.4994 12.1586C11.4994 12.1586 11.4994 12.1586 11.4994 12.1586C11.4994 12.1586 11.4994 12.1586 11.4994 12.1586C11.4994 12.1586 11.4994 12.1586 11.4994 12.1586C11.4994 12.1586 11.4994 12.1586 11.4994 12.1586C11.4994 12.1586 11.4994 12.1586 11.4994 12.1586C11.4994 12.1586 11.4994 12.1586 11.4994 12.1586C11.4994 12.1586 11.4994 12.1586 11.4994 12.1586C11.4994 12.1586 11.4994 12.1586 11.4994 12.1586C11.4994 12.1586 11.4993 12.1586 11.4993 12.1586C11.4993 12.1586 11.4993 12.1586 11.4993 12.1586C11.4993 12.1586 11.4993 12.1586 11.4993 12.1586C11.4993 12.1586 11.4993 12.1586 11.4993 12.1586C11.4993 12.1586 11.4993 12.1586 11.4993 12.1586C11.4993 12.1586 11.4993 12.1586 11.4993 12.1586C11.4993 12.1586 11.4993 12.1586 11.4993 12.1586C11.4993 12.1586 11.4993 12.1586 11.4993 12.1586C11.4993 12.1586 11.4993 12.1586 11.4993 12.1586C11.4993 12.1586 11.4992 12.1586 11.4992 12.1586C11.4992 12.1586 11.4992 12.1586 11.4992 12.1586C11.4992 12.1586 11.4992 12.1586 11.4992 12.1586C11.4992 12.1586 11.4992 12.1586 11.4992 12.1586C11.4992 12.1586 11.4992 12.1586 11.4992 12.1586C11.4992 12.1586 11.4992 12.1586 11.4992 12.1586C11.4992 12.1586 11.4992 12.1586 11.4992 12.1586C11.4992 12.1586 11.4992 12.1586 11.4992 12.1586C11.4992 12.1586 11.4992 12.1586 11.4991 12.1586C11.4991 12.1586 11.4991 12.1586 11.4991 12.1586C11.4991 12.1586 11.4991 12.1586 11.4991 12.1586C11.4991 12.1586 11.4991 12.1586 11.4991 12.1586C11.4991 12.1586 11.4991 12.1586 11.4991 12.1586C11.4991 12.1586 11.4991 12.1586 11.4991 12.1586C11.4991 12.1586 11.4991 12.1586 11.4991 12.1586C11.4991 12.1586 11.4991 12.1586 11.4991 12.1586C11.4991 12.1586 11.499 12.1586 11.499 12.1586C11.499 12.1586 11.499 12.1586 11.499 12.1586C11.499 12.1586 11.499 12.1586 11.499 12.1586C11.499 12.1586 11.499 12.1586 11.499 12.1586C11.499 12.1586 11.499 12.1586 11.499 12.1586C11.499 12.1586 11.499 12.1586 11.499 12.1586C11.499 12.1586 11.499 12.1586 11.499 12.1586C11.499 12.1586 11.4989 12.1586 11.4989 12.1586C11.4989 12.1586 11.4989 12.1586 11.4989 12.1586C11.4989 12.1586 11.4989 12.1586 11.4989 12.1586C11.4989 12.1586 11.4989 12.1586 11.4989 12.1586C11.4989 12.1586 11.4989 12.1586 11.4989 12.1586C11.4989 12.1586 11.4989 12.1586 11.4989 12.1586C11.4989 12.1586 11.4989 12.1586 11.4988 12.1586C11.4988 12.1586 11.4988 12.1586 11.4988 12.1586C11.4988 12.1586 11.4988 12.1586 11.4988 12.1586C11.4988 12.1586 11.4988 12.1586 11.4988 12.1586C11.4988 12.1586 11.4988 12.1586 11.4988 12.1586C11.4988 12.1586 11.4988 12.1586 11.4988 12.1586C11.4988 12.1586 11.4988 12.1586 11.4988 12.1586C11.4987 12.1586 11.4987 12.1586 11.4987 12.1586C11.4987 12.1586 11.4987 12.1586 11.4987 12.1586C11.4987 12.1586 11.4987 12.1586 11.4987 12.1586C11.4987 12.1586 11.4987 12.1586 11.4987 12.1586C11.4987 12.1586 11.4987 12.1586 11.4987 12.1586C11.4987 12.1586 11.4987 12.1586 11.4986 12.1586C11.4986 12.1586 11.4986 12.1586 11.4986 12.1586C11.4986 12.1586 11.4986 12.1586 11.4986 12.1586C11.4986 12.1586 11.4986 12.1586 11.4986 12.1586C11.4986 12.1586 11.4986 12.1586 11.4986 12.1586C11.4986 12.1586 11.4986 12.1586 11.4986 12.1586C11.4985 12.1586 11.4985 12.1586 11.4985 12.1586C11.4985 12.1586 11.4985 12.1586 11.4985 12.1586C11.4985 12.1586 11.4985 12.1586 11.4985 12.1586C11.4985 12.1586 11.4985 12.1586 11.4985 12.1586C11.4985 12.1586 11.4985 12.1586 11.4985 12.1586C11.4985 12.1586 11.4984 12.1586 11.4984 12.1586C11.4984 12.1586 11.4984 12.1586 11.4984 12.1586C11.4984 12.1586 11.4984 12.1586 11.4984 12.1586C11.4984 12.1586 11.4984 12.1586 11.4984 12.1586C11.4984 12.1586 11.4984 12.1586 11.4984 12.1586C11.4984 12.1586 11.4983 12.1586 11.4983 12.1586C11.4983 12.1586 11.4983 12.1586 11.4983 12.1586C11.4983 12.1586 11.4983 12.1586 11.4983 12.1586C11.4983 12.1586 11.4983 12.1586 11.4983 12.1586C11.4983 12.1586 11.4983 12.1586 11.4983 12.1586C11.4983 12.1586 11.4982 12.1586 11.4982 12.1586C11.4982 12.1586 11.4982 12.1586 11.4982 12.1586C11.4982 12.1586 11.4982 12.1586 11.4982 12.1586C11.4982 12.1586 11.4982 12.1586 11.4982 12.1586C11.4982 12.1586 11.4982 12.1586 11.4981 12.1586C11.4981 12.1586 11.4981 12.1586 11.4981 12.1586C11.4981 12.1586 11.4981 12.1586 11.4981 12.1586C11.4981 12.1586 11.4981 12.1586 11.4981 12.1586C11.4981 12.1586 11.4981 12.1586 11.4981 12.1586V14.1586C11.4981 14.1586 11.4981 14.1586 11.4981 14.1586C11.4981 14.1586 11.4981 14.1586 11.4981 14.1586C11.4981 14.1586 11.4981 14.1586 11.4981 14.1586C11.4981 14.1586 11.4981 14.1586 11.4981 14.1586C11.4982 14.1586 11.4982 14.1586 11.4982 14.1586C11.4982 14.1586 11.4982 14.1586 11.4982 14.1586C11.4982 14.1586 11.4982 14.1586 11.4982 14.1586C11.4982 14.1586 11.4982 14.1586 11.4982 14.1586C11.4982 14.1586 11.4983 14.1586 11.4983 14.1586C11.4983 14.1586 11.4983 14.1586 11.4983 14.1586C11.4983 14.1586 11.4983 14.1586 11.4983 14.1586C11.4983 14.1586 11.4983 14.1586 11.4983 14.1586C11.4983 14.1586 11.4983 14.1586 11.4983 14.1586C11.4983 14.1586 11.4984 14.1586 11.4984 14.1586C11.4984 14.1586 11.4984 14.1586 11.4984 14.1586C11.4984 14.1586 11.4984 14.1586 11.4984 14.1586C11.4984 14.1586 11.4984 14.1586 11.4984 14.1586C11.4984 14.1586 11.4984 14.1586 11.4984 14.1586C11.4984 14.1586 11.4985 14.1586 11.4985 14.1586C11.4985 14.1586 11.4985 14.1586 11.4985 14.1586C11.4985 14.1586 11.4985 14.1586 11.4985 14.1586C11.4985 14.1586 11.4985 14.1586 11.4985 14.1586C11.4985 14.1586 11.4985 14.1586 11.4985 14.1586C11.4985 14.1586 11.4985 14.1586 11.4986 14.1586C11.4986 14.1586 11.4986 14.1586 11.4986 14.1586C11.4986 14.1586 11.4986 14.1586 11.4986 14.1586C11.4986 14.1586 11.4986 14.1586 11.4986 14.1586C11.4986 14.1586 11.4986 14.1586 11.4986 14.1586C11.4986 14.1586 11.4986 14.1586 11.4986 14.1586C11.4987 14.1586 11.4987 14.1586 11.4987 14.1586C11.4987 14.1586 11.4987 14.1586 11.4987 14.1586C11.4987 14.1586 11.4987 14.1586 11.4987 14.1586C11.4987 14.1586 11.4987 14.1586 11.4987 14.1586C11.4987 14.1586 11.4987 14.1586 11.4987 14.1586C11.4987 14.1586 11.4987 14.1586 11.4988 14.1586C11.4988 14.1586 11.4988 14.1586 11.4988 14.1586C11.4988 14.1586 11.4988 14.1586 11.4988 14.1586C11.4988 14.1586 11.4988 14.1586 11.4988 14.1586C11.4988 14.1586 11.4988 14.1586 11.4988 14.1586C11.4988 14.1586 11.4988 14.1586 11.4988 14.1586C11.4988 14.1586 11.4988 14.1586 11.4988 14.1586C11.4989 14.1586 11.4989 14.1586 11.4989 14.1586C11.4989 14.1586 11.4989 14.1586 11.4989 14.1586C11.4989 14.1586 11.4989 14.1586 11.4989 14.1586C11.4989 14.1586 11.4989 14.1586 11.4989 14.1586C11.4989 14.1586 11.4989 14.1586 11.4989 14.1586C11.4989 14.1586 11.4989 14.1586 11.4989 14.1586C11.4989 14.1586 11.499 14.1586 11.499 14.1586C11.499 14.1586 11.499 14.1586 11.499 14.1586C11.499 14.1586 11.499 14.1586 11.499 14.1586C11.499 14.1586 11.499 14.1586 11.499 14.1586C11.499 14.1586 11.499 14.1586 11.499 14.1586C11.499 14.1586 11.499 14.1586 11.499 14.1586C11.499 14.1586 11.499 14.1586 11.499 14.1586C11.499 14.1586 11.4991 14.1586 11.4991 14.1586C11.4991 14.1586 11.4991 14.1586 11.4991 14.1586C11.4991 14.1586 11.4991 14.1586 11.4991 14.1586C11.4991 14.1586 11.4991 14.1586 11.4991 14.1586C11.4991 14.1586 11.4991 14.1586 11.4991 14.1586C11.4991 14.1586 11.4991 14.1586 11.4991 14.1586C11.4991 14.1586 11.4991 14.1586 11.4991 14.1586C11.4991 14.1586 11.4991 14.1586 11.4991 14.1586C11.4992 14.1586 11.4992 14.1586 11.4992 14.1586C11.4992 14.1586 11.4992 14.1586 11.4992 14.1586C11.4992 14.1586 11.4992 14.1586 11.4992 14.1586C11.4992 14.1586 11.4992 14.1586 11.4992 14.1586C11.4992 14.1586 11.4992 14.1586 11.4992 14.1586C11.4992 14.1586 11.4992 14.1586 11.4992 14.1586C11.4992 14.1586 11.4992 14.1586 11.4992 14.1586C11.4992 14.1586 11.4992 14.1586 11.4992 14.1586C11.4992 14.1586 11.4993 14.1586 11.4993 14.1586C11.4993 14.1586 11.4993 14.1586 11.4993 14.1586C11.4993 14.1586 11.4993 14.1586 11.4993 14.1586C11.4993 14.1586 11.4993 14.1586 11.4993 14.1586C11.4993 14.1586 11.4993 14.1586 11.4993 14.1586C11.4993 14.1586 11.4993 14.1586 11.4993 14.1586C11.4993 14.1586 11.4993 14.1586 11.4993 14.1586C11.4993 14.1586 11.4993 14.1586 11.4993 14.1586C11.4993 14.1586 11.4993 14.1586 11.4993 14.1586C11.4993 14.1586 11.4994 14.1586 11.4994 14.1586C11.4994 14.1586 11.4994 14.1586 11.4994 14.1586C11.4994 14.1586 11.4994 14.1586 11.4994 14.1586C11.4994 14.1586 11.4994 14.1586 11.4994 14.1586C11.4994 14.1586 11.4994 14.1586 11.4994 14.1586C11.4994 14.1586 11.4994 14.1586 11.4994 14.1586C11.4994 14.1586 11.4994 14.1586 11.4994 14.1586C11.4994 14.1586 11.4994 14.1586 11.4994 14.1586C11.4994 14.1586 11.4994 14.1586 11.4994 14.1586C11.4994 14.1586 11.4994 14.1586 11.4994 14.1586C11.4994 14.1586 11.4994 14.1586 11.4994 14.1586C11.4995 14.1586 11.4995 14.1586 11.4995 14.1586C11.4995 14.1586 11.4995 14.1586 11.4995 14.1586C11.4995 14.1586 11.4995 14.1586 11.4995 14.1586C11.4995 14.1586 11.4995 14.1586 11.4995 14.1586C11.4995 14.1586 11.4995 14.1586 11.4995 14.1586C11.4995 14.1586 11.4995 14.1586 11.4995 14.1586C11.4995 14.1586 11.4995 14.1586 11.4995 14.1586C11.4995 14.1586 11.4995 14.1586 11.4995 14.1586C11.4995 14.1586 11.4995 14.1586 11.4995 14.1586C11.4995 14.1586 11.4995 14.1586 11.4995 14.1586C11.4995 14.1586 11.4995 14.1586 11.4995 14.1586C11.4995 14.1586 11.4995 14.1586 11.4995 14.1586C11.4995 14.1586 11.4996 14.1586 11.4996 14.1586C11.4996 14.1586 11.4996 14.1586 11.4996 14.1586C11.4996 14.1586 11.4996 14.1586 11.4996 14.1586C11.4996 14.1586 11.4996 14.1586 11.4996 14.1586C11.4996 14.1586 11.4996 14.1586 11.4996 14.1586C11.4996 14.1586 11.4996 14.1586 11.4996 14.1586C11.4996 14.1586 11.4996 14.1586 11.4996 14.1586C11.4996 14.1586 11.4996 14.1586 11.4996 14.1586C11.4996 14.1586 11.4996 14.1586 11.4996 14.1586C11.4996 14.1586 11.4996 14.1586 11.4996 14.1586C11.4996 14.1586 11.4996 14.1586 11.4996 14.1586C11.4996 14.1586 11.4996 14.1586 11.4996 14.1586C11.4996 14.1586 11.4996 14.1586 11.4996 14.1586C11.4996 14.1586 11.4996 14.1586 11.4996 14.1586C11.4996 14.1586 11.4996 14.1586 11.4996 14.1586C11.4996 14.1586 11.4996 14.1586 11.4996 14.1586C11.4997 14.1586 11.4997 14.1586 11.4997 14.1586C11.4997 14.1586 11.4997 14.1586 11.4997 14.1586C11.4997 14.1586 11.4997 14.1586 11.4997 14.1586C11.4997 14.1586 11.4997 14.1586 11.4997 14.1586C11.4997 14.1586 11.4997 14.1586 11.4997 14.1586C11.4997 14.1586 11.4997 14.1586 11.4997 14.1586C11.4997 14.1586 11.4997 14.1586 11.4997 14.1586C11.4997 14.1586 11.4997 14.1586 11.4997 14.1586C11.4997 14.1586 11.4997 14.1586 11.4997 14.1586C11.4997 14.1586 11.4997 14.1586 11.4997 14.1586C11.4997 14.1586 11.4997 14.1586 11.4997 14.1586C11.4997 14.1586 11.4997 14.1586 11.4997 14.1586C11.4997 14.1586 11.4997 14.1586 11.4997 14.1586C11.4997 14.1586 11.4997 14.1586 11.4997 14.1586C11.4997 14.1586 11.4997 14.1586 11.4997 14.1586C11.4997 14.1586 11.4997 14.1586 11.4997 14.1586C11.4997 14.1586 11.4997 14.1586 11.4997 14.1586C11.4997 14.1586 11.4997 14.1586 11.4997 14.1586C11.4997 14.1586 11.4997 14.1586 11.4997 14.1586C11.4997 14.1586 11.4997 14.1586 11.4997 14.1586C11.4997 14.1586 11.4997 14.1586 11.4997 14.1586C11.4997 14.1586 11.4997 14.1586 11.4997 14.1586C11.4997 14.1586 11.4997 14.1586 11.4997 14.1586C11.4997 14.1586 11.4997 14.1586 11.4997 14.1586C11.4997 14.1586 11.4997 14.1586 11.4997 14.1586C11.4997 14.1586 11.4998 14.1586 11.4998 14.1586C11.4998 14.1586 11.4998 14.1586 11.4998 14.1586C11.4998 14.1586 11.4998 14.1586 11.4998 14.1586C11.4998 14.1586 11.4998 14.1586 11.4998 14.1586C11.4998 14.1586 11.4998 14.1586 11.4998 14.1586C11.4998 14.1586 11.4998 14.1586 11.4998 14.1586C11.4998 14.1586 11.4998 14.1586 11.4998 14.1586C11.4998 14.1586 11.4998 14.1586 11.4998 14.1586C11.4998 14.1586 11.4998 14.1586 11.4998 14.1586C11.4998 14.1586 11.4998 14.1586 11.4998 14.1586H11.4998C11.4998 14.1586 11.4998 14.1586 11.4998 14.1586C11.4998 14.1586 11.4998 14.1586 11.4998 14.1586C11.4998 14.1586 11.4998 14.1586 11.4998 14.1586H11.4998C11.4998 14.1586 11.4998 14.1586 11.4998 14.1586C11.4998 14.1586 11.4998 14.1586 11.4998 14.1586C11.4998 14.1586 11.4998 14.1586 11.4998 14.1586C11.4998 14.1586 11.4998 14.1586 11.4998 14.1586C11.4998 14.1586 11.4998 14.1586 11.4998 14.1586H11.4998H11.4998C11.4998 14.1586 11.4998 14.1586 11.4998 14.1586C11.4998 14.1586 11.4998 13.1586 11.4998 12.1586C11.4998 12.1586 11.4998 12.1586 11.4998 12.1586C11.4998 12.1586 11.4998 12.1586 11.4998 12.1586C11.4998 12.1586 11.4998 12.1586 11.4998 12.1586C11.4998 12.1586 11.4998 12.1586 11.4998 12.1586H11.4998H11.4998H11.4998H11.4998C11.4998 12.1586 11.4998 12.1586 11.4998 12.1586C11.4998 12.1586 11.4998 12.1586 11.4998 12.1586H11.4998C11.4998 12.1586 11.4998 12.1586 11.4998 12.1586H11.4998C11.4998 12.1586 11.4998 12.1586 11.4998 12.1586C11.4998 12.1586 11.4998 12.1586 11.4998 12.1586H11.4998C11.4998 12.1586 11.4998 12.1586 11.4998 12.1586C11.4998 12.1586 11.4998 12.1586 11.4998 12.1586C11.4998 12.1586 11.4998 12.1586 11.4998 12.1586C11.4998 12.1586 11.4998 12.1586 11.4998 12.1586C11.4998 12.1586 11.4998 12.1586 11.4998 12.1586C11.4998 12.1586 11.4998 12.1586 11.4998 12.1586C11.4998 12.1586 11.4998 12.1586 11.4998 12.1586C11.4998 12.1586 11.4997 12.1586 11.4997 12.1586C11.4997 12.1586 11.4997 12.1586 11.4997 12.1586C11.4997 12.1586 11.4997 12.1586 11.4997 12.1586C11.4997 12.1586 11.4997 12.1586 11.4997 12.1586C11.4997 12.1586 11.4997 12.1586 11.4997 12.1586C11.4997 12.1586 11.4997 12.1586 11.4997 12.1586C11.4997 12.1586 11.4997 12.1586 11.4997 12.1586C11.4997 12.1586 11.4997 12.1586 11.4997 12.1586C11.4997 12.1586 11.4997 12.1586 11.4997 12.1586C11.4997 12.1586 11.4997 12.1586 11.4997 12.1586C11.4997 12.1586 11.4997 12.1586 11.4997 12.1586C11.4997 12.1586 11.4997 12.1586 11.4997 12.1586C11.4997 12.1586 11.4997 12.1586 11.4997 12.1586C11.4997 12.1586 11.4997 12.1586 11.4997 12.1586C11.4997 12.1586 11.4997 12.1586 11.4997 12.1586C11.4997 12.1586 11.4997 12.1586 11.4997 12.1586C11.4997 12.1586 11.4997 12.1586 11.4997 12.1586C11.4997 12.1586 11.4997 12.1586 11.4997 12.1586C11.4997 12.1586 11.4997 12.1586 11.4997 12.1586C11.4997 12.1586 11.4997 12.1586 11.4997 12.1586C11.4997 12.1586 11.4997 12.1586 11.4997 12.1586C11.4997 12.1586 11.4997 12.1586 11.4997 12.1586C11.4997 12.1586 11.4997 12.1586 11.4997 12.1586C11.4997 12.1586 11.4997 12.1586 11.4997 12.1586C11.4997 12.1586 11.4997 12.1586 11.4997 12.1586C11.4997 12.1586 11.4997 12.1586 11.4997 12.1586C11.4997 12.1586 11.4997 12.1586 11.4997 12.1586C11.4997 12.1586 11.4997 12.1586 11.4997 12.1586C11.4997 12.1586 11.4997 12.1586 11.4997 12.1586C11.4997 12.1586 11.4997 12.1586 11.4997 12.1586C11.4996 12.1586 11.4996 12.1586 11.4996 12.1586C11.4996 12.1586 11.4996 12.1586 11.4996 12.1586C11.4996 12.1586 11.4996 12.1586 11.4996 12.1586C11.4996 12.1586 11.4996 12.1586 11.4996 12.1586C11.4996 12.1586 11.4996 12.1586 11.4996 12.1586C11.4996 12.1586 11.4996 12.1586 11.4996 12.1586C11.4996 12.1586 11.4996 12.1586 11.4996 12.1586C11.4996 12.1586 11.4996 12.1586 11.4996 12.1586C11.4996 12.1586 11.4996 12.1586 11.4996 12.1586C11.4996 12.1586 11.4996 12.1586 11.4996 12.1586C11.4996 12.1586 11.4996 12.1586 11.4996 12.1586C11.4996 12.1586 11.4996 12.1586 11.4996 12.1586C11.4996 12.1586 11.4996 12.1586 11.4996 12.1586C11.4996 12.1586 11.4996 12.1586 11.4996 12.1586C11.4996 12.1586 11.4996 12.1586 11.4996 12.1586C11.4996 12.1586 11.4996 12.1586 11.4996 12.1586C11.4996 12.1586 11.4996 12.1586 11.4996 12.1586C11.4996 12.1586 11.4996 12.1586 11.4996 12.1586C11.4996 12.1586 11.4996 12.1586 11.4996 12.1586C11.4996 12.1586 11.4996 12.1586 11.4996 12.1586C11.4996 12.1586 11.4995 12.1586 11.4995 12.1586C11.4995 12.1586 11.4995 12.1586 11.4995 12.1586C11.4995 12.1586 11.4995 12.1586 11.4995 12.1586C11.4995 12.1586 11.4995 12.1586 11.4995 12.1586C11.4995 12.1586 11.4995 12.1586 11.4995 12.1586C11.4995 12.1586 11.4995 12.1586 11.4995 12.1586C11.4995 12.1586 11.4995 12.1586 11.4995 12.1586C11.4995 12.1586 11.4995 12.1586 11.4995 12.1586C11.4995 12.1586 11.4995 12.1586 11.4995 12.1586C11.4995 12.1586 11.4995 12.1586 11.4995 12.1586C11.4995 12.1586 11.4995 12.1586 11.4995 12.1586C11.4995 12.1586 11.4995 12.1586 11.4995 12.1586C11.4995 12.1586 11.4995 12.1586 11.4995 12.1586C11.4995 12.1586 11.4995 12.1586 11.4995 12.1586C11.4995 12.1586 11.4995 12.1586 11.4995 12.1586C11.4995 12.1586 11.4995 12.1586 11.4995 12.1586C11.4995 12.1586 11.4995 12.1586 11.4995 12.1586C11.4995 12.1586 11.4995 12.1586 11.4994 12.1586C11.4994 12.1586 11.4994 12.1586 11.4994 12.1586C11.4994 12.1586 11.4994 12.1586 11.4994 12.1586C11.4994 12.1586 11.4994 12.1586 11.4994 12.1586C11.4994 12.1586 11.4994 12.1586 11.4994 12.1586C11.4994 12.1586 11.4994 12.1586 11.4994 12.1586C11.4994 12.1586 11.4994 12.1586 11.4994 12.1586C11.4994 12.1586 11.4994 12.1586 11.4994 12.1586C11.4994 12.1586 11.4994 12.1586 11.4994 12.1586C11.4994 12.1586 11.4994 12.1586 11.4994 12.1586C11.4994 12.1586 11.4994 12.1586 11.4994 12.1586C11.4994 12.1586 11.4994 12.1586 11.4994 12.1586C11.4994 12.1586 11.4994 12.1586 11.4994 12.1586C11.4994 12.1586 11.4994 12.1586 11.4994 12.1586C11.4994 12.1586 11.4994 12.1586 11.4994 12.1586C11.4994 12.1586 11.4994 12.1586 11.4994 12.1586C11.4994 12.1586 11.4993 12.1586 11.4993 12.1586C11.4993 12.1586 11.4993 12.1586 11.4993 12.1586C11.4993 12.1586 11.4993 12.1586 11.4993 12.1586C11.4993 12.1586 11.4993 12.1586 11.4993 12.1586C11.4993 12.1586 11.4993 12.1586 11.4993 12.1586C11.4993 12.1586 11.4993 12.1586 11.4993 12.1586C11.4993 12.1586 11.4993 12.1586 11.4993 12.1586C11.4993 12.1586 11.4993 12.1586 11.4993 12.1586C11.4993 12.1586 11.4993 12.1586 11.4993 12.1586C11.4993 12.1586 11.4993 12.1586 11.4993 12.1586C11.4993 12.1586 11.4993 12.1586 11.4993 12.1586C11.4993 12.1586 11.4993 12.1586 11.4993 12.1586C11.4993 12.1586 11.4993 12.1586 11.4993 12.1586C11.4993 12.1586 11.4993 12.1586 11.4993 12.1586C11.4993 12.1586 11.4993 12.1586 11.4993 12.1586C11.4992 12.1586 11.4992 12.1586 11.4992 12.1586C11.4992 12.1586 11.4992 12.1586 11.4992 12.1586C11.4992 12.1586 11.4992 12.1586 11.4992 12.1586C11.4992 12.1586 11.4992 12.1586 11.4992 12.1586C11.4992 12.1586 11.4992 12.1586 11.4992 12.1586C11.4992 12.1586 11.4992 12.1586 11.4992 12.1586C11.4992 12.1586 11.4992 12.1586 11.4992 12.1586C11.4992 12.1586 11.4992 12.1586 11.4992 12.1586C11.4992 12.1586 11.4992 12.1586 11.4992 12.1586C11.4992 12.1586 11.4992 12.1586 11.4992 12.1586C11.4992 12.1586 11.4992 12.1586 11.4992 12.1586C11.4992 12.1586 11.4992 12.1586 11.4992 12.1586C11.4992 12.1586 11.4992 12.1586 11.4992 12.1586C11.4992 12.1586 11.4992 12.1586 11.4991 12.1586C11.4991 12.1586 11.4991 12.1586 11.4991 12.1586C11.4991 12.1586 11.4991 12.1586 11.4991 12.1586C11.4991 12.1586 11.4991 12.1586 11.4991 12.1586C11.4991 12.1586 11.4991 12.1586 11.4991 12.1586C11.4991 12.1586 11.4991 12.1586 11.4991 12.1586C11.4991 12.1586 11.4991 12.1586 11.4991 12.1586C11.4991 12.1586 11.4991 12.1586 11.4991 12.1586C11.4991 12.1586 11.4991 12.1586 11.4991 12.1586C11.4991 12.1586 11.4991 12.1586 11.4991 12.1586C11.4991 12.1586 11.4991 12.1586 11.4991 12.1586C11.4991 12.1586 11.4991 12.1586 11.4991 12.1586C11.4991 12.1586 11.4991 12.1586 11.4991 12.1586C11.4991 12.1586 11.4991 12.1586 11.4991 12.1586C11.4991 12.1586 11.499 12.1586 11.499 12.1586C11.499 12.1586 11.499 12.1586 11.499 12.1586C11.499 12.1586 11.499 12.1586 11.499 12.1586C11.499 12.1586 11.499 12.1586 11.499 12.1586C11.499 12.1586 11.499 12.1586 11.499 12.1586C11.499 12.1586 11.499 12.1586 11.499 12.1586C11.499 12.1586 11.499 12.1586 11.499 12.1586C11.499 12.1586 11.499 12.1586 11.499 12.1586C11.499 12.1586 11.499 12.1586 11.499 12.1586C11.499 12.1586 11.499 12.1586 11.499 12.1586C11.499 12.1586 11.499 12.1586 11.499 12.1586C11.499 12.1586 11.499 12.1586 11.499 12.1586C11.499 12.1586 11.499 12.1586 11.499 12.1586C11.499 12.1586 11.499 12.1586 11.4989 12.1586C11.4989 12.1586 11.4989 12.1586 11.4989 12.1586C11.4989 12.1586 11.4989 12.1586 11.4989 12.1586C11.4989 12.1586 11.4989 12.1586 11.4989 12.1586C11.4989 12.1586 11.4989 12.1586 11.4989 12.1586C11.4989 12.1586 11.4989 12.1586 11.4989 12.1586C11.4989 12.1586 11.4989 12.1586 11.4989 12.1586C11.4989 12.1586 11.4989 12.1586 11.4989 12.1586C11.4989 12.1586 11.4989 12.1586 11.4989 12.1586C11.4989 12.1586 11.4989 12.1586 11.4989 12.1586C11.4989 12.1586 11.4989 12.1586 11.4989 12.1586C11.4989 12.1586 11.4989 12.1586 11.4989 12.1586C11.4989 12.1586 11.4989 12.1586 11.4989 12.1586C11.4989 12.1586 11.4989 12.1586 11.4988 12.1586C11.4988 12.1586 11.4988 12.1586 11.4988 12.1586C11.4988 12.1586 11.4988 12.1586 11.4988 12.1586C11.4988 12.1586 11.4988 12.1586 11.4988 12.1586C11.4988 12.1586 11.4988 12.1586 11.4988 12.1586C11.4988 12.1586 11.4988 12.1586 11.4988 12.1586C11.4988 12.1586 11.4988 12.1586 11.4988 12.1586C11.4988 12.1586 11.4988 12.1586 11.4988 12.1586C11.4988 12.1586 11.4988 12.1586 11.4988 12.1586C11.4988 12.1586 11.4988 12.1586 11.4988 12.1586C11.4988 12.1586 11.4988 12.1586 11.4988 12.1586C11.4988 12.1586 11.4988 12.1586 11.4988 12.1586C11.4988 12.1586 11.4988 12.1586 11.4988 12.1586C11.4988 12.1586 11.4988 12.1586 11.4988 12.1586C11.4987 12.1586 11.4987 12.1586 11.4987 12.1586C11.4987 12.1586 11.4987 12.1586 11.4987 12.1586C11.4987 12.1586 11.4987 12.1586 11.4987 12.1586C11.4987 12.1586 11.4987 12.1586 11.4987 12.1586C11.4987 12.1586 11.4987 12.1586 11.4987 12.1586C11.4987 12.1586 11.4987 12.1586 11.4987 12.1586C11.4987 12.1586 11.4987 12.1586 11.4987 12.1586C11.4987 12.1586 11.4987 12.1586 11.4987 12.1586C11.4987 12.1586 11.4987 12.1586 11.4987 12.1586C11.4987 12.1586 11.4987 12.1586 11.4987 12.1586C11.4987 12.1586 11.4987 12.1586 11.4987 12.1586C11.4987 12.1586 11.4987 12.1586 11.4987 12.1586C11.4987 12.1586 11.4987 12.1586 11.4987 12.1586C11.4987 12.1586 11.4987 12.1586 11.4986 12.1586C11.4986 12.1586 11.4986 12.1586 11.4986 12.1586C11.4986 12.1586 11.4986 12.1586 11.4986 12.1586C11.4986 12.1586 11.4986 12.1586 11.4986 12.1586C11.4986 12.1586 11.4986 12.1586 11.4986 12.1586C11.4986 12.1586 11.4986 12.1586 11.4986 12.1586C11.4986 12.1586 11.4986 12.1586 11.4986 12.1586C11.4986 12.1586 11.4986 12.1586 11.4986 12.1586C11.4986 12.1586 11.4986 12.1586 11.4986 12.1586C11.4986 12.1586 11.4986 12.1586 11.4986 12.1586C11.4986 12.1586 11.4986 12.1586 11.4986 12.1586C11.4986 12.1586 11.4986 12.1586 11.4986 12.1586C11.4986 12.1586 11.4986 12.1586 11.4986 12.1586C11.4986 12.1586 11.4986 12.1586 11.4986 12.1586C11.4986 12.1586 11.4986 12.1586 11.4985 12.1586C11.4985 12.1586 11.4985 12.1586 11.4985 12.1586C11.4985 12.1586 11.4985 12.1586 11.4985 12.1586C11.4985 12.1586 11.4985 12.1586 11.4985 12.1586C11.4985 12.1586 11.4985 12.1586 11.4985 12.1586C11.4985 12.1586 11.4985 12.1586 11.4985 12.1586C11.4985 12.1586 11.4985 12.1586 11.4985 12.1586C11.4985 12.1586 11.4985 12.1586 11.4985 12.1586C11.4985 12.1586 11.4985 12.1586 11.4985 12.1586C11.4985 12.1586 11.4985 12.1586 11.4985 12.1586C11.4985 12.1586 11.4985 12.1586 11.4985 12.1586C11.4985 12.1586 11.4985 12.1586 11.4985 12.1586C11.4985 12.1586 11.4985 12.1586 11.4985 12.1586C11.4985 12.1586 11.4985 12.1586 11.4985 12.1586C11.4985 12.1586 11.4985 12.1586 11.4985 12.1586C11.4985 12.1586 11.4985 12.1586 11.4984 12.1586C11.4984 12.1586 11.4984 12.1586 11.4984 12.1586C11.4984 12.1586 11.4984 12.1586 11.4984 12.1586C11.4984 12.1586 11.4984 12.1586 11.4984 12.1586C11.4984 12.1586 11.4984 12.1586 11.4984 12.1586C11.4984 12.1586 11.4984 12.1586 11.4984 12.1586C11.4984 12.1586 11.4984 12.1586 11.4984 12.1586C11.4984 12.1586 11.4984 12.1586 11.4984 12.1586C11.4984 12.1586 11.4984 12.1586 11.4984 12.1586C11.4984 12.1586 11.4984 12.1586 11.4984 12.1586C11.4984 12.1586 11.4984 12.1586 11.4984 12.1586C11.4984 12.1586 11.4984 12.1586 11.4984 12.1586C11.4984 12.1586 11.4984 12.1586 11.4984 12.1586C11.4984 12.1586 11.4984 12.1586 11.4984 12.1586C11.4984 12.1586 11.4984 12.1586 11.4984 12.1586C11.4984 12.1586 11.4984 12.1586 11.4984 12.1586C11.4984 12.1586 11.4984 12.1586 11.4984 12.1586C11.4983 12.1586 11.4983 12.1586 11.4983 12.1586C11.4983 12.1586 11.4983 12.1586 11.4983 12.1586C11.4983 12.1586 11.4983 12.1586 11.4983 12.1586C11.4983 12.1586 11.4983 12.1586 11.4983 12.1586C11.4983 12.1586 11.4983 12.1586 11.4983 12.1586C11.4983 12.1586 11.4983 12.1586 11.4983 12.1586C11.4983 12.1586 11.4983 12.1586 11.4983 12.1586C11.4983 12.1586 11.4983 12.1586 11.4983 12.1586C11.4983 12.1586 11.4983 12.1586 11.4983 12.1586C11.4983 12.1586 11.4983 12.1586 11.4983 12.1586C11.4983 12.1586 11.4983 12.1586 11.4983 12.1586C11.4983 12.1586 11.4983 12.1586 11.4983 12.1586C11.4983 12.1586 11.4983 12.1586 11.4983 12.1586C11.4983 12.1586 11.4983 12.1586 11.4983 12.1586C11.4983 12.1586 11.4983 12.1586 11.4983 12.1586C11.4983 12.1586 11.4983 12.1586 11.4983 12.1586C11.4983 12.1586 11.4983 12.1586 11.4983 12.1586C11.4983 12.1586 11.4983 12.1586 11.4983 12.1586C11.4983 12.1586 11.4982 12.1586 11.4982 12.1586C11.4982 12.1586 11.4982 12.1586 11.4982 12.1586C11.4982 12.1586 11.4982 12.1586 11.4982 12.1586C11.4982 12.1586 11.4982 12.1586 11.4982 12.1586C11.4982 12.1586 11.4982 12.1586 11.4982 12.1586C11.4982 12.1586 11.4982 12.1586 11.4982 12.1586C11.4982 12.1586 11.4982 12.1586 11.4982 12.1586C11.4982 12.1586 11.4982 12.1586 11.4982 12.1586C11.4982 12.1586 11.4982 12.1586 11.4982 12.1586C11.4982 12.1586 11.4982 12.1586 11.4982 12.1586C11.4982 12.1586 11.4982 12.1586 11.4982 12.1586C11.4982 12.1586 11.4982 12.1586 11.4982 12.1586C11.4982 12.1586 11.4982 12.1586 11.4982 12.1586C11.4982 12.1586 11.4982 12.1586 11.4982 12.1586C11.4982 12.1586 11.4982 12.1586 11.4982 12.1586C11.4982 12.1586 11.4982 12.1586 11.4982 12.1586C11.4982 12.1586 11.4982 12.1586 11.4982 12.1586C11.4982 12.1586 11.4982 12.1586 11.4982 12.1586C11.4982 12.1586 11.4982 12.1586 11.4982 12.1586C11.4982 12.1586 11.4982 12.1586 11.4982 12.1586C11.4982 12.1586 11.4982 12.1586 11.4982 12.1586C11.4982 12.1586 11.4982 12.1586 11.4982 12.1586C11.4982 12.1586 11.4982 12.1586 11.4982 12.1586C11.4982 12.1586 11.4981 12.1586 11.4981 12.1586C11.4981 12.1586 11.4981 12.1586 11.4981 12.1586C11.4981 12.1586 11.4981 12.1586 11.4981 12.1586C11.4981 12.1586 11.4981 12.1586 11.4981 12.1586C11.4981 12.1586 11.4981 12.1586 11.4981 12.1586C11.4981 12.1586 11.4981 12.1586 11.4981 12.1586C11.4981 12.1586 11.4981 12.1586 11.4981 12.1586C11.4981 12.1586 11.4981 12.1586 11.4981 12.1586C11.4981 12.1586 11.4981 12.1586 11.4981 12.1586C11.4981 12.1586 11.4981 12.1586 11.4981 12.1586C11.4981 12.1586 11.4981 12.1586 11.4981 12.1586C11.4981 12.1586 11.4981 12.1586 11.4981 12.1586C11.4981 12.1586 11.4981 12.1586 11.4981 12.1586C11.4981 12.1586 11.4981 12.1586 11.4981 12.1586C11.4981 12.1586 11.4981 12.1586 11.4981 12.1586C11.4981 12.1586 11.4981 12.1586 11.4981 12.1586C11.4981 12.1586 11.4981 12.1586 11.4981 12.1586C11.4981 12.1586 11.4981 12.1586 11.4981 12.1586C11.4981 12.1586 11.4981 12.1586 11.4981 12.1586C11.4981 12.1586 11.4981 12.1586 11.4981 12.1586C11.4981 12.1586 11.4981 12.1586 11.4981 12.1586C11.4981 12.1586 11.4981 12.1586 11.4981 12.1586C11.4981 12.1586 11.4981 12.1586 11.4981 12.1586C11.4981 12.1586 11.4981 12.1586 11.4981 12.1586C11.4981 12.1586 11.4981 12.1586 11.4981 12.1586C11.4981 12.1586 11.4981 12.1586 11.4981 12.1586C11.4981 12.1586 11.4981 12.1586 11.4981 12.1586C11.4981 12.1586 11.4981 12.1586 11.4981 12.1586H11.4981C11.4981 12.1586 11.4981 12.1586 11.4981 12.1586C11.4981 12.1586 11.4981 12.1586 11.4981 12.1586H11.4981C11.4981 12.1586 11.4981 12.1586 11.4981 12.1586C11.4981 12.1586 11.4981 12.1586 11.4981 12.1586H11.4981H11.4981H11.4981H11.4981H11.4981C11.4981 12.1586 11.4981 12.1586 11.4981 12.1586C11.4981 12.1586 11.4981 12.1586 11.4981 12.1586C11.4981 12.1586 11.4981 12.1586 11.4981 12.1586H11.4981C11.4981 12.1586 11.4981 12.1586 11.4981 13.1586Z" fill="black" mask="url(#path-1-inside-1_1399_6164)"/>
</svg>
