<svg viewBox="0 0 557 91" fill="none" xmlns="http://www.w3.org/2000/svg">
<path d="M97.7009 89.0413V1.95872H155.31V25.8507H128.677V33.9487H152.873V56.7955H128.677V65.1493H156.076V89.0413H97.7009Z" fill="currentColor"/>
<path d="M165.386 89.0413V1.95872H194.958L214.803 34.8623C218.007 40.088 220.049 43.4792 222.866 50.2689H223.762C222.479 44.7874 221.074 36.039 221.074 29.6439V1.95872H250.774V89.0413H221.074L199.824 54.7052C197.903 51.5698 195.596 47.0019 193.933 43.3476H193.037C193.933 48.0471 194.958 55.4873 194.958 59.4047V89.0413H165.386Z" fill="currentColor"/>
<path d="M261.482 89.0413V1.95872H292.465V89.0413H261.482Z" fill="currentColor"/>
<path d="M382.605 77.0259C375.309 84.5976 363.397 90.9927 347.142 90.9927C330.88 90.9927 318.976 84.5976 311.68 77.0259C305.022 70.1046 299.775 59.4047 299.775 45.4306C299.775 31.588 305.022 20.8881 311.68 13.9668C318.976 6.39507 330.88 0 347.142 0C363.404 0 375.309 6.39507 382.605 13.9668C389.263 20.8881 394.509 31.588 394.509 45.4306C394.509 59.4047 389.263 70.1119 382.605 77.0259ZM336.005 32.5089C332.93 35.7758 331.138 40.8627 331.138 45.5621C331.138 50.5247 332.93 55.3557 336.005 58.4911C338.563 61.1003 342.405 62.9275 347.142 62.9275C351.88 62.9275 355.721 61.1003 358.28 58.4911C361.096 55.6188 363.146 51.0509 363.146 45.5621C363.146 40.0806 361.355 35.5127 358.28 32.5089C355.972 30.1555 352.26 28.0725 347.142 28.0725C341.638 28.0725 338.047 30.287 336.005 32.5089Z" fill="currentColor"/>
<path d="M403.117 1.95872H433.842V52.4834C433.842 55.0926 434.1 58.7469 436.529 61.3634C438.192 63.1906 440.242 63.7168 442.672 63.7168C445.875 63.7168 447.789 62.8032 448.943 61.6265C451.25 59.2732 451.25 54.7052 451.25 52.4907V1.95872H482.105V55.3557C482.105 62.1455 480.822 72.0633 473.146 80.1613C464.438 89.2971 452.146 91 442.679 91C434.867 91 420.654 90.218 410.929 79.5108C404.271 72.2022 403.117 63.9726 403.117 57.5775V1.95872Z" fill="currentColor"/>
<path d="M545.862 29.7681C542.15 27.1589 535.363 23.2415 528.454 23.2415C526.791 23.2415 524.232 23.5046 522.562 24.8056C521.409 25.7191 521.029 26.6327 521.029 27.941C521.029 29.7681 521.287 31.4637 526.024 32.5089L535.879 34.7307C543.433 36.4263 547.912 39.5617 550.471 42.1709C555.846 47.5208 557 54.179 557 59.4047C557 66.8449 555.079 73.7662 549.317 79.9055C544.451 84.9996 535.234 91 519.23 91C506.171 91 497.464 87.2141 490.167 84.2103L487.351 83.0336L496.697 58.4911L500.022 61.1003C503.226 63.5779 509.755 67.4954 517.302 67.4954C521.53 67.4954 523.322 66.4502 523.96 65.9313C525.372 64.7546 525.623 63.3221 525.623 62.0139C525.623 61.2319 525.494 59.9236 524.598 59.01C523.573 57.9649 521.91 57.5702 518.707 56.9198L511.153 55.4873C506.286 54.5737 501.04 53.0096 496.302 48.0471C491.952 43.4792 490.16 38.2535 490.16 31.99C490.16 23.892 492.848 16.978 498.481 11.2334C505.018 4.43635 514.621 0 528.196 0C534.983 0 543.813 1.17669 554.183 7.57176L545.862 29.7681Z" fill="currentColor"/>
<path d="M45.5751 59.01H59.6584C57.6086 64.7546 51.5954 66.4502 46.987 66.4502C42.6367 66.4502 39.304 64.8862 36.8744 62.5328C33.1618 58.8785 31.2411 52.8708 31.2411 46.9946C31.2411 39.4229 34.0577 33.8098 37.5122 30.5428C40.1999 28.0652 43.9124 26.4939 48.3918 26.4939C54.6343 26.4939 58.0673 29.9508 59.9235 32.772L81.0089 11.957C78.5936 9.78628 75.8558 7.87142 72.7167 6.13196C64.7828 1.82716 56.8417 0 47.6249 0C30.467 0 18.6916 6.39507 11.7754 13.711C6.02031 19.7114 0 29.7681 0 45.6937C0 57.1829 2.94565 67.7585 11.0086 76.6385C17.4087 83.6914 28.2954 91 46.213 91C60.2962 91 73.9924 86.0374 82.4423 76.7701C92.684 65.544 93.5799 51.0509 93.5799 40.3438V38.385H45.5751V59.01Z" fill="currentColor"/>
</svg>
