<svg viewBox="0 0 28 28" fill="none" xmlns="http://www.w3.org/2000/svg">
<path fill-rule="evenodd" clip-rule="evenodd" d="M16.8338 18.2838C15.4261 19.3688 13.659 20.0147 11.7402 20.0147C7.14396 20.0147 3.41797 16.309 3.41797 11.7378C3.41797 7.16662 7.14396 3.46094 11.7402 3.46094C16.3364 3.46094 20.0624 7.16662 20.0624 11.7378C20.0624 13.9576 19.1838 15.9734 17.7535 17.4597L24.3529 24.024L23.4788 24.8933L16.8338 18.2838ZM18.8262 11.7378C18.8262 15.63 15.6537 18.7852 11.7402 18.7852C7.82669 18.7852 4.65417 15.63 4.65417 11.7378C4.65417 7.84563 7.82669 4.6904 11.7402 4.6904C15.6537 4.6904 18.8262 7.84563 18.8262 11.7378Z" fill="currentColor"/>
</svg>
