<svg width="204" height="124" viewBox="0 0 204 124" fill="none" xmlns="http://www.w3.org/2000/svg">
<path d="M193.201 123.999H10.7991C8.5341 124.027 6.3214 123.305 4.50893 121.946C2.69654 120.587 1.384 118.666 0.777576 116.484C0.260275 114.28 0.469979 111.968 1.37353 109.893C2.27534 107.817 3.82385 106.087 5.78827 104.962L101.499 49.6009H102.501L198.212 104.962C200.176 106.087 201.725 107.817 202.626 109.893C203.53 111.969 203.74 114.281 203.222 116.484C202.616 118.666 201.303 120.587 199.491 121.946C197.679 123.306 195.466 124.027 193.201 123.999H193.201ZM102 52.3554L7.04085 107.216C5.48013 107.93 4.23578 109.192 3.54368 110.761C2.85157 112.33 2.75896 114.098 3.28152 115.732C3.68349 117.41 4.64998 118.897 6.01844 119.945C7.3869 120.995 9.07518 121.542 10.7986 121.495H193.201C194.924 121.542 196.612 120.995 197.981 119.945C199.349 118.897 200.316 117.41 200.718 115.732C201.24 114.098 201.148 112.33 200.456 110.761C199.764 109.192 198.519 107.93 196.959 107.216L102 52.3554Z" fill="black"/>
<path d="M102 52.1049C101.308 52.1049 100.747 51.544 100.747 50.852V36.8243C100.747 36.1324 101.308 35.5715 102 35.5715C106.385 35.5715 110.592 33.8293 113.693 30.7296C116.795 27.628 118.537 23.4239 118.537 19.0378C118.537 14.6537 116.795 10.4478 113.693 7.34784C110.592 4.24626 106.386 2.50598 102 2.50598C97.6153 2.50598 93.4087 4.24635 90.3081 7.34784C87.2059 10.4477 85.4635 14.6536 85.4635 19.0378C85.4635 19.3698 85.3324 19.6896 85.0965 19.9237C84.8623 20.1596 84.5442 20.2907 84.2104 20.2907C83.52 20.2907 82.959 19.7298 82.959 19.0378C82.959 12.2371 86.5873 5.95173 92.4786 2.55161C98.3702 -0.850535 105.63 -0.850535 111.522 2.55161C117.413 5.952 121.041 12.2371 121.041 19.0378C120.994 23.8604 119.141 28.4894 115.849 32.0139C112.556 35.5383 108.061 37.7016 103.253 38.0774V50.8526C103.253 51.5445 102.692 52.1054 102 52.1054L102 52.1049Z" fill="black"/>
</svg>
