<?xml version="1.0" standalone="no"?>
<!DOCTYPE svg PUBLIC "-//W3C//DTD SVG 20010904//EN"
 "http://www.w3.org/TR/2001/REC-SVG-20010904/DTD/svg10.dtd">
<svg version="1.0" xmlns="http://www.w3.org/2000/svg"
 width="700.000000pt" height="700.000000pt" viewBox="0 0 700.000000 700.000000"
 preserveAspectRatio="xMidYMid meet">
<metadata>
Created by potrace 1.14, written by Peter Selinger 2001-2017
</metadata>
<g transform="translate(0.000000,700.000000) scale(0.100000,-0.100000)"
fill="#000000" stroke="none">
<path d="M3289 6645 c-2 -2 -40 -6 -84 -10 -44 -3 -96 -8 -115 -10 -19 -3 -55
-7 -80 -9 -25 -3 -58 -7 -75 -10 -16 -3 -46 -8 -65 -11 -622 -101 -1190 -351
-1610 -709 -41 -36 -286 -282 -315 -317 -338 -412 -553 -877 -651 -1404 -17
-93 -18 -99 -29 -200 -4 -33 -9 -68 -10 -77 -25 -131 -25 -697 0 -888 2 -14 6
-50 10 -80 7 -63 28 -185 49 -285 68 -329 220 -700 402 -978 62 -95 183 -260
208 -282 6 -5 26 -28 45 -50 79 -94 217 -230 326 -320 347 -290 748 -492 1208
-609 117 -30 154 -38 232 -51 11 -2 47 -9 80 -14 33 -6 83 -13 110 -16 28 -3
61 -8 74 -10 154 -27 710 -27 921 0 185 23 355 52 498 86 81 20 298 82 332 96
8 3 20 7 25 8 25 6 249 97 330 134 167 78 476 265 575 348 182 154 259 226
363 346 247 284 447 650 560 1027 29 98 73 270 81 318 4 17 8 47 11 65 3 17 8
39 10 47 5 17 11 57 20 120 3 25 8 56 10 70 3 14 8 57 11 95 3 39 8 84 9 100
21 205 37 768 23 791 -5 7 -3305 12 -3349 5 -4 -1 -7 -325 -7 -721 l0 -720 92
0 c50 0 272 0 493 0 364 0 402 -2 396 -16 -53 -139 -155 -261 -290 -348 -159
-101 -334 -148 -563 -152 -259 -4 -426 42 -615 169 -256 173 -450 540 -503
954 -9 75 -9 400 1 481 28 241 125 508 255 701 62 93 188 227 267 283 310 222
768 267 1092 108 129 -64 257 -173 342 -292 19 -27 37 -48 39 -48 3 0 136 130
296 289 160 159 380 376 488 483 108 106 308 303 443 437 l246 244 -23 21
c-12 11 -61 51 -108 88 -47 38 -91 72 -97 78 -25 21 -241 158 -318 202 -341
194 -817 358 -1170 403 -28 4 -61 8 -75 11 -14 2 -50 6 -80 9 -30 4 -73 8 -95
11 -46 6 -641 14 -646 9z"/>
</g>
</svg>
