<svg width="145" height="200" viewBox="0 0 145 200" fill="none" xmlns="http://www.w3.org/2000/svg">
<path d="M2.22181 0.04445C1.13979 0.287781 0.378986 1.26111 0.404941 2.3707V197.745C0.432518 198.626 0.954856 199.417 1.75623 199.786C2.55598 200.156 3.49685 200.04 4.18468 199.489L16.6855 189.096L29.1864 199.489H29.1848C30.0348 200.17 31.2417 200.17 32.0918 199.489L44.5926 189.096L57.0935 199.489H57.0919C57.9419 200.17 59.1504 200.17 59.9989 199.489L72.4997 189.096L85.0006 199.489C85.849 200.17 87.0575 200.17 87.9076 199.489L100.408 189.096L112.909 199.489H112.908C113.758 200.17 114.965 200.17 115.815 199.489L128.316 189.096L140.816 199.489H140.815C141.503 200.04 142.443 200.156 143.243 199.786C144.045 199.417 144.567 198.626 144.595 197.745V2.3707C144.595 1.47689 144.082 0.660897 143.276 0.273188C142.469 -0.114516 141.512 -0.00420971 140.815 0.553827L128.314 10.9471L115.815 0.553827C114.965 -0.125867 113.758 -0.125867 112.908 0.553827L100.407 10.9471L87.9077 0.553827C87.0576 -0.125867 85.8491 -0.125867 85.0007 0.553827L72.4998 10.9471L59.9989 0.553827C59.1505 -0.125867 57.942 -0.125867 57.092 0.553827L44.5928 10.9471L32.0919 0.553827C31.2418 -0.125867 30.0349 -0.125867 29.1849 0.553827L16.6857 10.9471L4.18484 0.553827C3.64302 0.0931119 2.91951 -0.0934336 2.22196 0.0444405L2.22181 0.04445ZM30.638 5.35053L43.1389 15.7438V15.7454C43.9889 16.4251 45.1958 16.4251 46.0458 15.7454L58.5467 5.35215L71.0476 15.7454H71.046C71.896 16.4251 73.1029 16.4251 73.9529 15.7454L86.4538 5.35215L98.9547 15.7454H98.953C99.8031 16.4251 101.01 16.4251 101.86 15.7454L114.361 5.35215L126.862 15.7454H126.86C127.71 16.4251 128.919 16.4251 129.767 15.7454L139.942 7.24169V192.803L129.767 184.299V184.297C128.919 183.618 127.71 183.618 126.86 184.297L114.359 194.691L101.858 184.297H101.86C101.01 183.618 99.8031 183.618 98.953 184.297L86.4522 194.691L73.9513 184.297H73.9529C73.1029 183.618 71.896 183.618 71.046 184.297L58.5451 194.691L46.0442 184.297H46.0458C45.1958 183.618 43.9889 183.618 43.1389 184.297L30.638 194.691L18.1371 184.297H18.1387C17.2887 183.618 16.0802 183.618 15.2318 184.297L5.05732 192.801V7.24007L15.2318 15.7438V15.7454C16.0802 16.4251 17.2887 16.4251 18.1387 15.7454L30.638 5.35053ZM25.5508 62.8424V62.844C24.9327 62.8991 24.3633 63.1992 23.9675 63.6778C23.5701 64.1547 23.3803 64.7695 23.4387 65.3876C23.4955 66.0057 23.7972 66.5751 24.2757 66.9709C24.7543 67.3651 25.3691 67.5548 25.9871 67.4948H95.7548C96.3777 67.5046 96.9779 67.2629 97.4208 66.8265C97.8636 66.3885 98.1135 65.7915 98.1135 65.1686C98.1135 64.5473 97.8636 63.9503 97.4208 63.5123C96.9779 63.0759 96.3777 62.8342 95.7548 62.8439H25.9871C25.8428 62.8293 25.6968 62.8293 25.5508 62.8439V62.8424ZM25.5508 86.1016C24.266 86.2232 23.3235 87.362 23.4435 88.6468C23.5636 89.9316 24.7023 90.8741 25.9871 90.754H95.7548C96.3777 90.7621 96.9779 90.522 97.4208 90.084C97.8636 89.6477 98.1135 89.0507 98.1135 88.4278C98.1135 87.8048 97.8636 87.2095 97.4208 86.7715C96.9779 86.3351 96.3777 86.0934 95.7548 86.1015H25.9871C25.8428 86.0885 25.6968 86.0885 25.5508 86.1015V86.1016ZM25.5508 109.361C24.9343 109.419 24.3649 109.719 23.9707 110.196C23.5749 110.673 23.3851 111.288 23.4435 111.904C23.5636 113.189 24.7023 114.133 25.9871 114.013H119.011C119.632 114.021 120.232 113.78 120.673 113.342C121.116 112.905 121.366 112.308 121.366 111.687C121.366 111.066 121.116 110.469 120.673 110.032C120.232 109.594 119.632 109.353 119.011 109.361H25.9871C25.8428 109.348 25.6968 109.348 25.5508 109.361V109.361ZM25.5508 132.62C24.9311 132.673 24.3584 132.972 23.9594 133.451C23.5603 133.929 23.3689 134.545 23.4257 135.165C23.4841 135.785 23.7874 136.356 24.2676 136.752C24.7494 137.148 25.3674 137.334 25.9871 137.272H119.011C119.634 137.282 120.235 137.04 120.68 136.604C121.123 136.166 121.374 135.569 121.374 134.946C121.374 134.323 121.123 133.725 120.68 133.288C120.235 132.85 119.634 132.61 119.011 132.62H25.9871C25.8427 132.607 25.6967 132.607 25.5507 132.62L25.5508 132.62Z" fill="black"/>
</svg>
